<svg xmlns="http://www.w3.org/2000/svg" viewBox="0 0 2680 1592" width="2680" height="1592"><defs><linearGradient id="grd1" gradientUnits="userSpaceOnUse"  x1="2354.791" y1="1409.602" x2="2292.806" y2="1409.602"><stop offset="0" stop-color="#4042e2"  /><stop offset="1" stop-color="#4f52ff"  /></linearGradient><linearGradient id="grd2" gradientUnits="userSpaceOnUse"  x1="2354.727" y1="1387.79" x2="2294.05" y2="1387.79"><stop offset="0" stop-color="#09005d"  /><stop offset="1" stop-color="#1a0f91"  /></linearGradient><linearGradient id="grd3" gradientUnits="userSpaceOnUse"  x1="2349.02" y1="1372.372" x2="2331.413" y2="1372.372"><stop offset="0" stop-color="#ff928e"  /><stop offset="1" stop-color="#feb3b1"  /></linearGradient><linearGradient id="grd4" gradientUnits="userSpaceOnUse"  x1="2478.887" y1="1406.716" x2="2455.449" y2="1406.716"><stop offset="0" stop-color="#4042e2"  /><stop offset="1" stop-color="#4f52ff"  /></linearGradient><linearGradient id="grd5" gradientUnits="userSpaceOnUse"  x1="2479.228" y1="1372.279" x2="2445.409" y2="1372.279"><stop offset="0" stop-color="#09005d"  /><stop offset="1" stop-color="#1a0f91"  /></linearGradient><linearGradient id="grd6" gradientUnits="userSpaceOnUse"  x1="2460.57" y1="1356.051" x2="2439.911" y2="1356.051"><stop offset="0" stop-color="#ff928e"  /><stop offset="1" stop-color="#feb3b1"  /></linearGradient><linearGradient id="grd7" gradientUnits="userSpaceOnUse"  x1="2526.062" y1="1333.507" x2="2221.018" y2="911.768"><stop offset="0" stop-color="#fe7062"  /><stop offset="1" stop-color="#ff928e"  /></linearGradient><linearGradient id="grd8" gradientUnits="userSpaceOnUse"  x1="2158.508" y1="982.248" x2="2495.611" y2="1386.236"><stop offset="0" stop-color="#4042e2"  /><stop offset="1" stop-color="#4f52ff"  /></linearGradient><linearGradient id="grd9" gradientUnits="userSpaceOnUse"  x1="2397.932" y1="1286.82" x2="2387.962" y2="1266.88"><stop offset="0" stop-color="#e1473d"  /><stop offset="1" stop-color="#e9605a"  /></linearGradient><linearGradient id="grd10" gradientUnits="userSpaceOnUse"  x1="2342.41" y1="1088.658" x2="2417.315" y2="1154.988"><stop offset="0" stop-color="#ff928e"  /><stop offset="1" stop-color="#feb3b1"  /></linearGradient><linearGradient id="grd11" gradientUnits="userSpaceOnUse"  x1="2262.176" y1="930.894" x2="2559.86" y2="1287.641"><stop offset="0" stop-color="#4042e2"  /><stop offset="1" stop-color="#4f52ff"  /></linearGradient><linearGradient id="grd12" gradientUnits="userSpaceOnUse"  x1="2146.334" y1="993.519" x2="2484.508" y2="1398.791"><stop offset="0" stop-color="#4042e2"  /><stop offset="1" stop-color="#4f52ff"  /></linearGradient><linearGradient id="grd13" gradientUnits="userSpaceOnUse"  x1="2224.132" y1="1049.543" x2="2165.142" y2="1049.543"><stop offset="0" stop-color="#ff928e"  /><stop offset="1" stop-color="#feb3b1"  /></linearGradient><linearGradient id="grd14" gradientUnits="userSpaceOnUse"  x1="2293.315" y1="894.329" x2="2314.217" y2="992.957"><stop offset="0" stop-color="#ff928e"  /><stop offset="1" stop-color="#feb3b1"  /></linearGradient><linearGradient id="grd15" gradientUnits="userSpaceOnUse"  x1="2442.147" y1="1037.097" x2="2136.528" y2="1037.097"><stop offset="0" stop-color="#020039"  /><stop offset="1" stop-color="#090056"  /></linearGradient><linearGradient id="grd16" gradientUnits="userSpaceOnUse"  x1="2169.51" y1="819.269" x2="1853.994" y2="819.269"><stop offset="0" stop-color="#020039"  /><stop offset="1" stop-color="#090056"  /></linearGradient><linearGradient id="grd17" gradientUnits="userSpaceOnUse"  x1="2326.393" y1="1112.09" x2="2392.123" y2="1170.295"><stop offset="0" stop-color="#ff928e"  /><stop offset="1" stop-color="#feb3b1"  /></linearGradient><linearGradient id="grd18" gradientUnits="userSpaceOnUse"  x1="2166.328" y1="1050.701" x2="2150.699" y2="1050.701"><stop offset="0" stop-color="#ff928e"  /><stop offset="1" stop-color="#feb3b1"  /></linearGradient><linearGradient id="grd19" gradientUnits="userSpaceOnUse"  x1="1128.028" y1="-1350.997" x2="1164.145" y2="-1280.698"><stop offset="0" stop-color="#ff928e"  /><stop offset="1" stop-color="#feb3b1"  /></linearGradient><linearGradient id="grd20" gradientUnits="userSpaceOnUse"  x1="2256.557" y1="838.526" x2="2206.304" y2="903.226"><stop offset="0" stop-color="#09005d"  /><stop offset="0.342" stop-color="#0f056f"  /><stop offset="1" stop-color="#1a0f91"  /></linearGradient><linearGradient id="grd21" gradientUnits="userSpaceOnUse"  x1="1380.027" y1="-1084.467" x2="1411.672" y2="-1022.873"><stop offset="0" stop-color="#ff928e"  /><stop offset="1" stop-color="#feb3b1"  /></linearGradient><linearGradient id="grd22" gradientUnits="userSpaceOnUse"  x1="489.612" y1="1539.67" x2="487.211" y2="1467.645"><stop offset="0" stop-color="#7c27dd"  /><stop offset="1" stop-color="#2b41d9"  /></linearGradient><linearGradient id="grd23" gradientUnits="userSpaceOnUse"  x1="385.091" y1="1377.528" x2="507" y2="1473.251"><stop offset="0" stop-color="#53d8ff"  /><stop offset="1" stop-color="#3840f7"  /></linearGradient><linearGradient id="grd24" gradientUnits="userSpaceOnUse"  x1="481.095" y1="1358.695" x2="472.934" y2="1429.92"><stop offset="0" stop-color="#ff928e"  /><stop offset="1" stop-color="#feb3b1"  /></linearGradient><linearGradient id="grd25" gradientUnits="userSpaceOnUse"  x1="622.601" y1="1407.921" x2="476.698" y2="1522.485"><stop offset="0" stop-color="#53d8ff"  /><stop offset="1" stop-color="#3840f7"  /></linearGradient><linearGradient id="grd26" gradientUnits="userSpaceOnUse"  x1="535.783" y1="1585.091" x2="538.198" y2="1512.649"><stop offset="0" stop-color="#7c27dd"  /><stop offset="1" stop-color="#2b41d9"  /></linearGradient><linearGradient id="grd27" gradientUnits="userSpaceOnUse"  x1="566.876" y1="1367.696" x2="559.27" y2="1434.078"><stop offset="0" stop-color="#ff928e"  /><stop offset="1" stop-color="#feb3b1"  /></linearGradient><linearGradient id="grd28" gradientUnits="userSpaceOnUse"  x1="450.111" y1="1362.225" x2="459.313" y2="1073.894"><stop offset="0" stop-color="#2b3582"  /><stop offset="1" stop-color="#150e42"  /></linearGradient><linearGradient id="grd29" gradientUnits="userSpaceOnUse"  x1="571.046" y1="927.923" x2="560.454" y2="1159.188"><stop offset="0" stop-color="#fe7062"  /><stop offset="1" stop-color="#ff928e"  /></linearGradient><linearGradient id="grd30" gradientUnits="userSpaceOnUse"  x1="475.85" y1="873.456" x2="512.623" y2="873.456"><stop offset="0" stop-color="#ff928e"  /><stop offset="1" stop-color="#feb3b1"  /></linearGradient><linearGradient id="grd31" gradientUnits="userSpaceOnUse"  x1="459.596" y1="916.024" x2="448.381" y2="1160.886"><stop offset="0" stop-color="#fe7062"  /><stop offset="1" stop-color="#ff928e"  /></linearGradient><linearGradient id="grd32" gradientUnits="userSpaceOnUse"  x1="490.314" y1="1104.754" x2="438.033" y2="1149.411"><stop offset="0" stop-color="#f9b776"  /><stop offset="1" stop-color="#f47960"  /></linearGradient><linearGradient id="grd33" gradientUnits="userSpaceOnUse"  x1="634.669" y1="927.042" x2="623.454" y2="1171.904"><stop offset="0" stop-color="#fe7062"  /><stop offset="1" stop-color="#ff928e"  /></linearGradient><linearGradient id="grd34" gradientUnits="userSpaceOnUse"  x1="539.193" y1="1086.495" x2="568.6" y2="1115.902"><stop offset="0" stop-color="#f9b776"  /><stop offset="1" stop-color="#f47960"  /></linearGradient><linearGradient id="grd35" gradientUnits="userSpaceOnUse"  x1="524.435" y1="845.697" x2="538.067" y2="925.918"><stop offset="0" stop-color="#ff928e"  /><stop offset="1" stop-color="#feb3b1"  /></linearGradient><linearGradient id="grd36" gradientUnits="userSpaceOnUse"  x1="452.151" y1="858.006" x2="495.339" y2="812.127"><stop offset="0" stop-color="#2b3582"  /><stop offset="1" stop-color="#150e42"  /></linearGradient><linearGradient id="grd37" gradientUnits="userSpaceOnUse"  x1="475.066" y1="928.161" x2="472.943" y2="878.837"><stop offset="0" stop-color="#ff928e"  /><stop offset="1" stop-color="#feb3b1"  /></linearGradient><linearGradient id="grd38" gradientUnits="userSpaceOnUse"  x1="381.82" y1="967.294" x2="504.99" y2="967.294"><stop offset="0" stop-color="#4042e2"  /><stop offset="1" stop-color="#4f52ff"  /></linearGradient><linearGradient id="grd39" gradientUnits="userSpaceOnUse"  x1="626.121" y1="967.294" x2="502.873" y2="967.294"><stop offset="0" stop-color="#4042e2"  /><stop offset="1" stop-color="#4f52ff"  /></linearGradient><linearGradient id="grd40" gradientUnits="userSpaceOnUse"  x1="391.762" y1="1062.138" x2="400.822" y2="1062.138"><stop offset="0" stop-color="#ff928e"  /><stop offset="1" stop-color="#feb3b1"  /></linearGradient><linearGradient id="grd41" gradientUnits="userSpaceOnUse"  x1="617.174" y1="1062.138" x2="608.113" y2="1062.138"><stop offset="0" stop-color="#ff928e"  /><stop offset="1" stop-color="#feb3b1"  /></linearGradient></defs><style>tspan { white-space:pre }.shp0 { fill: url(#grd1) } .shp1 { fill: url(#grd2) } .shp2 { fill: url(#grd3) } .shp3 { fill: url(#grd4) } .shp4 { fill: url(#grd5) } .shp5 { fill: url(#grd6) } .shp6 { fill: url(#grd7) } .shp7 { fill: url(#grd8) } .shp8 { fill: url(#grd9) } .shp9 { fill: url(#grd10) } .shp10 { fill: url(#grd11) } .shp11 { fill: url(#grd12) } .shp12 { fill: url(#grd13) } .shp13 { fill: url(#grd14) } .shp14 { fill: url(#grd15) } .shp15 { opacity: 0.502;mix-blend-mode: soft-light;fill: #ffffff } .shp16 { fill: url(#grd16) } .shp17 { fill: #91b3fa } .shp18 { fill: url(#grd17) } .shp19 { fill: url(#grd18) } .shp20 { fill: url(#grd19) } .shp21 { fill: url(#grd20) } .shp22 { fill: url(#grd21) } .shp23 { fill: url(#grd22) } .shp24 { fill: url(#grd23) } .shp25 { fill: url(#grd24) } .shp26 { fill: url(#grd25) } .shp27 { fill: url(#grd26) } .shp28 { fill: url(#grd27) } .shp29 { fill: url(#grd28) } .shp30 { fill: url(#grd29) } .shp31 { fill: url(#grd30) } .shp32 { fill: url(#grd31) } .shp33 { fill: url(#grd32) } .shp34 { fill: url(#grd33) } .shp35 { fill: url(#grd34) } .shp36 { fill: url(#grd35) } .shp37 { fill: url(#grd36) } .shp38 { fill: url(#grd37) } .shp39 { fill: url(#grd38) } .shp40 { fill: url(#grd39) } .shp41 { fill: #7d97f4 } .shp42 { fill: url(#grd40) } .shp43 { fill: url(#grd41) } </style><g ><g ><g ><g ><g ><path class="shp0" d="M2294.05 1411.39C2304.76 1412.31 2323.34 1413.82 2337.99 1414.46C2346.8 1414.85 2351.87 1413.99 2354.79 1412.82C2354.79 1413.15 2354.78 1413.46 2354.76 1413.75C2354.69 1415.29 2353.44 1416.52 2351.88 1416.61C2324.2 1418.16 2302.18 1417.15 2294.35 1416.67C2292.72 1416.57 2291.76 1414.81 2292.59 1413.43C2293 1412.74 2293.5 1412.06 2294.05 1411.39Z" /><path class="shp1" d="M2337.99 1414.46C2323.34 1413.82 2304.76 1412.31 2294.05 1411.39C2301.07 1402.78 2315.72 1395.57 2337.99 1389.77L2347.43 1389.77C2353.92 1399.12 2354.86 1408.03 2354.79 1412.82C2351.87 1413.99 2346.8 1414.85 2337.99 1414.46Z" /><path class="shp2" d="M2349.02 1374.36L2348.14 1391.84C2348.04 1393.73 2346.62 1395.32 2344.73 1395.59C2342.84 1395.86 2340.32 1395.89 2337.64 1395C2335.99 1394.45 2334.77 1393.07 2334.47 1391.37L2331.41 1374.36L2349.02 1374.36Z" /></g><g ><g ><path class="shp3" d="M2471.6 1414.33C2476.25 1413.68 2478.35 1411.27 2479.23 1408.69C2479.23 1408.72 2479.24 1408.74 2479.25 1408.76C2479.93 1411.48 2478.34 1414.3 2475.18 1415.64C2471.35 1417.26 2467.17 1417.54 2463.92 1417.41C2460.43 1417.26 2457.23 1415.82 2455.48 1413.51L2455.45 1413.48C2458.95 1415.21 2463.86 1415.41 2471.6 1414.33Z" /><path class="shp4" d="M2449.71 1374.25L2457.49 1374.25C2469.35 1374 2476.79 1399.01 2479.23 1408.69C2478.35 1411.27 2476.25 1413.68 2471.6 1414.33C2463.86 1415.41 2458.95 1415.21 2455.45 1413.48C2449.04 1405.05 2445.87 1392.7 2444.34 1385.5C2443.18 1380.04 2444.97 1376.29 2449.71 1374.25Z" /></g><path class="shp5" d="M2456.49 1358.03L2460.81 1375.22C2461.34 1377.32 2460.33 1379.5 2458.39 1380.5C2455.97 1381.74 2452.56 1383.05 2449.44 1382.67C2447.96 1382.49 2446.74 1381.46 2446.26 1380.07L2439.91 1361.99L2456.49 1358.03Z" /></g><path class="shp6" d="M2461.65 1362.99C2458.06 1366.17 2450.44 1367.97 2438.78 1368.39C2396.78 1267.59 2367.19 1210.03 2350.01 1195.71C2356.07 1233.75 2356.56 1294.9 2351.48 1379.13C2344.54 1382.19 2336.61 1382.19 2327.68 1379.13C2326.83 1285.69 2312.47 1204.21 2295.5 1139.97C2338.08 1139.01 2360.73 1124.44 2368.12 1118.59C2391.78 1156.74 2422.96 1238.21 2461.65 1362.99Z" /><path class="shp7" d="M2357.31 944.71C2365.37 984.91 2362.48 1056.86 2360.58 1089.68C2360.05 1098.91 2366.49 1111.69 2371.69 1120.42C2372.51 1121.79 2372.01 1123.54 2370.59 1124.27C2361.87 1128.74 2332.35 1142.63 2298.14 1144.35C2295.86 1144.47 2293.82 1142.91 2293.23 1140.71C2276.31 1077.53 2258.02 1025.76 2238.37 985.39C2260.07 950.74 2299.71 937.18 2357.31 944.71Z" /><path class="shp8" d="M2345.71 1192.13C2346.07 1192.13 2346.43 1192.03 2346.76 1191.83C2347.71 1191.25 2348.01 1190.01 2347.43 1189.06C2347.09 1188.5 2338.94 1175.33 2322.45 1167.38C2321.45 1166.89 2320.24 1167.31 2319.76 1168.32C2319.27 1169.32 2319.7 1170.53 2320.7 1171.01C2336.07 1178.43 2343.91 1191.03 2343.99 1191.16C2344.37 1191.78 2345.03 1192.13 2345.71 1192.13Z" /><g ><path class="shp9" d="M2407.86 1060.08C2405.27 1078.81 2397.62 1099.24 2382.32 1120.94L2376.51 1116.2C2380.98 1098.03 2381.95 1078.65 2379.4 1058.04C2388.84 1056.2 2399.99 1058.09 2407.86 1060.08Z" /><path class="shp10" d="M2348.31 994.31L2357.31 944.71C2397.41 975.36 2414.26 1013.82 2407.86 1060.08C2399.99 1058.09 2388.84 1056.2 2379.4 1058.04C2376.65 1035.76 2368.44 1011.59 2348.31 994.31Z" /></g><g ><path class="shp11" d="M2238.37 985.39L2261.59 1035.39C2257.83 1065.57 2241.62 1078.63 2224.13 1083.63C2223.04 1069.87 2219.56 1058.76 2216.34 1051.07C2231.23 1035.69 2238.57 1013.8 2238.37 985.39Z" /><path class="shp12" d="M2216.34 1051.07C2219.56 1058.76 2223.04 1069.87 2224.13 1083.63C2193.03 1095.7 2173.37 1090.03 2165.14 1066.63L2173.76 1065.11C2193.23 1067.16 2206.83 1060.88 2216.34 1051.07Z" /></g><path class="shp13" d="M2259.76 923.66L2270.97 964.86C2272.23 969.49 2277.23 971.98 2281.69 970.19C2286.5 968.27 2292.59 965.65 2297.84 962.82C2303.45 959.79 2305.2 952.58 2301.65 947.29L2278.35 912.55L2259.76 923.66Z" /></g><path class="shp14" d="M2143.76 1039.06L2430.96 1143.59C2443.01 1147.97 2448.76 1161.69 2443.46 1173.36L2442.59 1175.27C2437.89 1185.6 2425.69 1190.12 2415.4 1185.36L2136.53 1056.36L2143.76 1039.06Z" /><path class="shp15" d="M1866.73 976.18C1866.73 1053.07 1930.21 1115.4 2008.51 1115.4C2086.81 1115.4 2150.28 1053.07 2150.28 976.18C2150.28 899.29 2086.81 836.96 2008.51 836.96C1930.21 836.96 1866.73 899.29 1866.73 976.18Z" /><path fill-rule="evenodd" class="shp16" d="M2011.75 821.27C2098.88 821.27 2169.51 890.63 2169.51 976.18C2169.51 1061.74 2098.88 1131.09 2011.75 1131.09C1924.63 1131.09 1853.99 1061.74 1853.99 976.18C1853.99 890.63 1924.63 821.27 2011.75 821.27ZM2011.75 1108.34C2086.08 1108.34 2146.34 1049.17 2146.34 976.18C2146.34 903.19 2086.08 844.02 2011.75 844.02C1937.42 844.02 1877.17 903.19 1877.17 976.18C1877.17 1049.17 1937.42 1108.34 2011.75 1108.34Z" /><g ><path class="shp17" d="M2157.39 995.27C2156.86 995.2 2156.49 994.72 2156.55 994.19C2157.01 990.59 2157.34 986.9 2157.52 983.24C2157.55 982.7 2158 982.24 2158.54 982.32C2159.07 982.35 2159.48 982.8 2159.46 983.33C2159.27 987.05 2158.94 990.78 2158.48 994.43C2158.41 994.92 2158 995.28 2157.52 995.28C2157.48 995.28 2157.43 995.28 2157.39 995.27ZM2155.48 951.16C2153.72 941.35 2150.9 931.69 2147.09 922.45L2147.09 922.45C2124.66 868.05 2071.54 832.89 2011.75 832.89C1983.87 832.89 1956.77 840.63 1933.37 855.29C1932.92 855.57 1932.32 855.43 1932.04 854.98C1931.75 854.52 1931.89 853.93 1932.34 853.64C1956.05 838.8 1983.51 830.95 2011.75 830.95C2072.33 830.95 2126.15 866.58 2148.88 921.71L2148.88 921.72C2152.74 931.08 2155.6 940.87 2157.39 950.82C2157.48 951.35 2157.13 951.85 2156.6 951.95C2156.55 951.96 2156.49 951.96 2156.43 951.96C2155.97 951.96 2155.56 951.63 2155.48 951.16Z" /></g><path class="shp18" d="M2378.91 1115.37L2351.75 1113.16L2340 1124C2341.85 1126.56 2345.68 1127.1 2351.48 1125.63C2357.27 1124.16 2364.14 1123.24 2372.09 1122.88C2380.09 1126.49 2384.14 1124.92 2384.24 1118.16L2378.91 1115.37Z" /><path class="shp19" d="M2168.6 1073.05C2166.25 1074.89 2158.21 1071.06 2153.28 1068.41C2150.89 1067.12 2149.72 1064.31 2150.55 1061.72C2151.73 1057.98 2153.71 1053.16 2156.14 1052.55C2160.17 1051.54 2178.28 1065.49 2168.6 1073.05Z" /><path class="shp17" d="M2425.29 1181.25C2425.4 1181.25 2425.51 1181.24 2425.61 1181.2C2436.78 1177.34 2439.38 1170.75 2439.59 1165.9C2439.9 1158.81 2435.44 1152.23 2428.51 1149.52L2394.02 1136.08C2393.53 1135.88 2392.96 1136.13 2392.77 1136.63C2392.57 1137.12 2392.82 1137.69 2393.32 1137.88L2427.8 1151.33C2433.97 1153.73 2437.92 1159.55 2437.65 1165.81C2437.39 1171.99 2433.12 1176.55 2424.98 1179.37C2424.47 1179.54 2424.2 1180.09 2424.38 1180.6C2424.52 1181 2424.89 1181.25 2425.29 1181.25Z" /><path class="shp17" d="M2383.04 1133.81C2383.43 1133.81 2383.8 1133.57 2383.95 1133.19C2384.14 1132.69 2383.9 1132.13 2383.4 1131.93L2378.93 1130.19C2378.43 1129.99 2377.87 1130.24 2377.67 1130.74C2377.48 1131.24 2377.72 1131.8 2378.22 1132L2382.69 1133.74C2382.81 1133.79 2382.93 1133.81 2383.04 1133.81Z" /><path class="shp20" d="M2257.34 883.21C2251.15 897.42 2247.85 908.25 2247.44 915.71C2246.82 926.89 2244.41 934.15 2257.34 936.4C2270.27 938.65 2281.17 932.21 2287.07 921.07C2293.24 909.62 2295.63 901.56 2294.24 896.87C2292.86 892.18 2280.56 887.63 2257.34 883.21Z" /><path class="shp21" d="M2244.22 865.42C2245.3 860.71 2247.11 852.52 2252.89 851.53C2256.58 850.9 2259.96 853.09 2262.73 855.23C2264.1 856.29 2265.43 857.41 2266.75 858.54C2269.59 860.98 2271.9 863.35 2275.54 864.41C2278.76 865.35 2281.75 866.98 2284.79 868.36C2291.07 871.19 2298.14 874.85 2301.83 880.95C2303.68 884 2303.91 887.53 2302.45 890.83C2302.71 890.96 2303.05 890.97 2303.34 890.79C2304.52 890.07 2306.41 889.73 2308.93 891.85C2313.31 895.54 2311.52 905.09 2301.91 912.95C2301.45 913.33 2301.46 914.04 2301.95 914.36C2303.69 915.5 2306.29 918.19 2299.56 921.79C2292.68 925.47 2288.61 925.07 2287.07 924.67C2286.66 924.57 2286.38 924.19 2286.41 923.76L2287.01 913.98C2287.04 913.47 2286.64 913.03 2286.14 913.03L2282.65 913.03L2281.02 913.03C2284.45 906 2285.28 901.06 2283.5 898.21C2281.59 897.66 2279.56 896.95 2277.94 896C2277.35 895.65 2276.57 895.41 2275.74 895.22C2274.54 894.95 2273.24 894.8 2272.24 894.58C2270.87 894.28 2269.48 894.06 2268.09 893.84C2265.25 893.39 2262.53 892.64 2259.83 891.64C2253.62 889.32 2247.6 885.36 2244.82 879.08C2243 875 2243.24 869.7 2244.22 865.42Z" /><path class="shp22" d="M2282.25 915.1C2284.61 906.03 2287.82 902.76 2291.89 905.31C2297.99 909.12 2288.72 920.56 2283.82 921.07L2282.25 915.1Z" /></g><g ><g ><path class="shp23" d="M442.41 1419.26C442.4 1418.95 442.43 1418.64 442.5 1418.32C445.62 1405.96 453.56 1396.61 466.31 1390.28L475.51 1391C480.79 1407.34 484.2 1415.32 483.35 1419.78C483.33 1419.91 483.29 1420.03 483.26 1420.15C475.67 1420.83 460.05 1421.27 442.41 1419.26Z" /><path class="shp24" d="M483.26 1420.15C482.85 1421.64 481.75 1422.8 480.34 1423.1C469.55 1425.37 452.39 1423.54 445.19 1422.6C443.6 1422.39 442.44 1420.92 442.41 1419.26C460.05 1421.27 475.67 1420.83 483.26 1420.15Z" /><path class="shp25" d="M458.73 1375.96L462.76 1395.35C463.05 1396.77 464.15 1397.83 465.47 1397.96C467.09 1398.11 469.39 1398.2 471.71 1397.86C473.79 1397.55 475.23 1395.44 474.86 1393.18L472.06 1375.96L458.73 1375.96Z" /><path class="shp26" d="M561.42 1419.99C551.6 1419.71 546.52 1418.56 543.89 1417.48C543.88 1418.46 543.89 1419.45 543.92 1420.48C543.95 1421.58 544.77 1422.46 545.77 1422.46L599.71 1422.11C601.43 1422.1 602.44 1420.1 601.69 1418.52C594.62 1419.11 576.61 1420.41 561.42 1419.99Z" /><path class="shp27" d="M601.69 1418.52C601.63 1418.38 601.57 1418.24 601.48 1418.11C596.72 1411.46 584.58 1398.2 560.61 1392.45L549.11 1392.09C545.69 1398.03 543.95 1406.49 543.89 1417.48C546.52 1418.56 551.6 1419.71 561.42 1419.99C576.61 1420.41 594.62 1419.11 601.69 1418.52Z" /><path class="shp28" d="M546.97 1374.66C547.1 1375.52 548.68 1388.55 549.29 1393.6C549.43 1394.8 550.3 1395.73 551.4 1395.86C553.36 1396.09 556.53 1396.31 559.3 1395.74C560.8 1395.43 561.88 1394 561.88 1392.32L561.88 1371.87L546.97 1374.66Z" /><path class="shp29" d="M466.42 1121.36C454.15 1230.42 451.42 1319.04 458.24 1387.21C466.42 1387.21 472.55 1386.53 476.64 1385.16C489.39 1278.52 497.83 1209.95 501.96 1179.43C502.19 1177.71 504.65 1177.63 504.99 1179.34C512.62 1217.84 542.61 1368.86 546.17 1383.12C552.99 1385.85 559.12 1385.85 564.58 1383.12C553.67 1237.24 544.13 1151.35 535.95 1125.45L466.42 1121.36Z" /><path class="shp30" d="M429.61 931.17C481.41 922.99 527.77 924.36 568.67 935.26L564.58 998.66C553.67 1057.28 544.13 1099.54 535.95 1125.45C504.59 1130.9 481.41 1129.54 466.42 1121.36C454.15 1047.74 444.6 1005.47 437.79 994.57C430.97 965.94 428.24 944.81 429.61 931.17Z" /><path class="shp31" d="M483.59 875.29L475.85 927.65C490.27 934.27 502.53 934.13 512.62 927.22L509.36 890.27L483.59 875.29Z" /><path class="shp32" d="M429.61 931.17C349.17 1018.43 356.33 1078.75 451.08 1112.16L451.08 1101.93C415.63 1071.94 411.54 1036.49 438.81 995.59C435.4 956.73 432.33 935.26 429.61 931.17Z" /><path class="shp33" d="M452.1 1102.95C464.37 1094.77 473.23 1092.05 478.69 1094.77C484.14 1097.5 486.87 1100.91 486.87 1105C484.14 1110.45 480.73 1112.5 476.64 1111.13C470.51 1109.09 456.19 1113.18 450.06 1111.13C448.69 1105.68 449.38 1102.95 452.1 1102.95Z" /><path class="shp34" d="M568.67 935.26C652.51 1019.79 647.06 1078.75 552.31 1112.16L552.31 1101.93C587.75 1071.94 591.84 1036.49 564.58 995.59C561.85 962.19 563.21 942.08 568.67 935.26Z" /><path class="shp35" d="M551.28 1102.95C539.02 1094.77 530.15 1092.05 524.7 1094.77C519.25 1097.5 516.52 1100.91 516.52 1105C519.25 1110.45 522.65 1112.5 526.74 1111.13C532.88 1109.09 547.19 1113.18 553.33 1111.13C554.69 1105.68 554.01 1102.95 551.28 1102.95Z" /><g ><path class="shp36" d="M506.2 836.82C506.55 837.15 513.91 851.42 528.28 879.64L503.85 891.43L477.47 854.35C490.79 837.17 500.37 831.33 506.2 836.82Z" /><path class="shp37" d="M488.27 855.38C487.84 856.5 487.95 857.76 488.57 858.8L500.75 879.11C500.94 879.42 501.15 879.7 501.42 879.94C502.87 881.29 507.83 885.22 511.67 879.87C514.94 875.31 518 871.17 521.29 869.46C523.21 868.47 525.57 869.26 526.55 871.19C528.55 875.17 532.44 883.28 534.89 890.97C535.5 892.9 534.5 894.97 532.63 895.73C527.68 897.73 517.91 901.36 509.23 902.55C507.81 902.75 506.4 902.15 505.55 900.99C501.82 895.87 491.3 881.59 487.71 878.01C484.37 874.69 478.21 875.94 475.44 876.74C474.39 877.04 473.27 876.89 472.33 876.33C469.51 874.63 464.6 870.41 469.1 863.27C470.21 861.49 469.64 859.12 467.89 857.97C464.75 855.9 461.34 852.02 464.59 845.74C467.87 839.38 473.75 838.81 477.75 839.3C479.52 839.51 481.31 838.58 481.99 836.94C482.29 836.2 482.89 835.58 484 835.35C486.1 834.93 487.47 833.01 487.06 830.91C486.36 827.31 486.89 822.64 492.64 819.48C503.18 813.68 512.41 823.12 514.75 831.09C517.1 839.07 505.32 844.7 497.91 845.64C492.46 846.33 489.47 852.27 488.27 855.38Z" /><path class="shp38" d="M492.28 885.47C489.16 876.33 485.6 871.92 481.6 872.26C475.6 872.76 470.88 878.74 478.31 885.46C484.48 891.03 489.13 891.03 492.28 885.47Z" /></g></g><path class="shp39" d="M381.82 969.29L502.87 1015.1L504.99 1179.34L402.62 1146.57L381.82 969.29Z" /><path class="shp40" d="M626.12 969.29L502.87 1015.1L502.95 1179.34L605.32 1146.57L626.12 969.29Z" /><g ><path class="shp17" d="M509.51 1023.71L619.84 982.55L614.38 1015.97L509.51 1046.77L509.51 1023.71Z" /><path class="shp17" d="M512.05 1059.06L547.29 1046.77L542.07 1153.8L514.39 1164.25L512.05 1059.06Z" /><path class="shp17" d="M555.01 1046.77L610.46 1027.44L599.5 1111.72L552.31 1121.36L555.01 1046.77Z" /><path class="shp17" d="M551.88 1131.35L596.43 1121.36L596.43 1137.62L551.88 1150.5L551.88 1131.35Z" /></g><g ><path class="shp41" d="M491.04 1023.71L392.81 985.86L394.59 1004.65L491.04 1035.28L491.04 1023.71Z" /><path class="shp41" d="M490.9 1050.43L396.4 1023.71L408.93 1139.71L494.24 1164.25L490.9 1050.43Z" /></g><path class="shp42" d="M394.31 1090.89C393.78 1089.7 383.97 1072.4 391.08 1066.07C398.2 1059.74 401.58 1066.78 401.1 1074.4C400.61 1082.01 398.27 1099.93 394.31 1090.89Z" /><path class="shp43" d="M614.63 1090.89C615.15 1089.7 624.97 1072.4 617.85 1066.07C610.74 1059.74 607.35 1066.78 607.84 1074.4C608.33 1082.01 610.66 1099.93 614.63 1090.89Z" /></g></g></g></svg>