<?xml version="1.0" encoding="UTF-8" standalone="no"?>
<svg
   xmlns:dc="http://purl.org/dc/elements/1.1/"
   xmlns:cc="http://creativecommons.org/ns#"
   xmlns:rdf="http://www.w3.org/1999/02/22-rdf-syntax-ns#"
   xmlns:svg="http://www.w3.org/2000/svg"
   xmlns="http://www.w3.org/2000/svg"
   xmlns:sodipodi="http://sodipodi.sourceforge.net/DTD/sodipodi-0.dtd"
   xmlns:inkscape="http://www.inkscape.org/namespaces/inkscape"
   version="1.1"
   id="svg2"
   xml:space="preserve"
   width="595.58667"
   height="550.20001"
   viewBox="0 0 595.58667 550.20001"
   sodipodi:docname="3275438.eps"><metadata
     id="metadata8"><rdf:RDF><cc:Work
         rdf:about=""><dc:format>image/svg+xml</dc:format><dc:type
           rdf:resource="http://purl.org/dc/dcmitype/StillImage" /></cc:Work></rdf:RDF></metadata><defs
     id="defs6"><clipPath
       clipPathUnits="userSpaceOnUse"
       id="clipPath216"><path
         d="m 3300.76,2691.29 c -9.61,0 -18.94,0.92 -27.69,2.86 -24.61,5.43 -40.04,17.85 -45.15,33.55 h -0.01 l -0.07,0.24 -0.03,0.12 -10.01,31.66 c 5.24,-15.51 20.63,-27.76 45.02,-33.14 8.75,-1.94 18.07,-2.86 27.68,-2.86 44.78,0 95.79,19.99 123.98,50.8 13.1,14.32 19.37,28.91 19.34,42.07 -0.01,3.92 -0.57,7.71 -1.69,11.34 v 0 l 10.14,-32.07 0.04,-0.12 0.08,-0.24 h -0.01 v 0 c 1.11,-3.64 1.68,-7.45 1.68,-11.39 0.02,-13.15 -6.25,-27.71 -19.34,-42.02 -28.18,-30.81 -79.18,-50.8 -123.96,-50.8"
         id="path214" /></clipPath></defs><sodipodi:namedview
     pagecolor="#ffffff"
     bordercolor="#666666"
     borderopacity="1"
     objecttolerance="10"
     gridtolerance="10"
     guidetolerance="10"
     inkscape:pageopacity="0"
     inkscape:pageshadow="2"
     inkscape:window-width="640"
     inkscape:window-height="480"
     id="namedview4" /><g
     id="g10"
     inkscape:groupmode="layer"
     inkscape:label="ink_ext_XXXXXX"
     transform="matrix(1.3333333,0,0,-1.3333333,0,550.2)"><g
       id="g12"
       transform="scale(0.1)"><path
         d="m 3706.14,2139.74 c 847.82,-489.49 847.81,-1283.119 -0.01,-1772.611 -847.84,-489.5 -2222.44,-489.5 -3070.263,-0.008 -847.828,489.488 -847.82,1283.119 0.012,1772.609 847.821,489.5 2222.421,489.5 3070.261,0.01"
         style="fill:#e7e8e5;fill-opacity:1;fill-rule:nonzero;stroke:none"
         id="path14" /><path
         d="m 4341.98,1254.69 c -0.5,287.39 -171.23,574.66 -511.97,807.21 -6.1,4.13 -12.19,8.28 -18.31,12.35 L 749.297,306.172 h 0.008 c 6.234,-3.133 12.593,-6.25 18.898,-9.371 C 1171.43,99.2695 1670.02,0.308594 2168.81,0.0195313 L 4341.98,1254.69"
         style="fill:#fafaf9;fill-opacity:1;fill-rule:nonzero;stroke:none"
         id="path16" /><path
         d="m 1949.46,2318.53 c 149.33,-86.21 149.33,-225.99 0,-312.21 -149.33,-86.22 -391.44,-86.22 -540.77,0 -149.33,86.21 -149.33,226 0,312.21 149.33,86.21 391.44,86.22 540.77,0"
         style="fill:#dadbd8;fill-opacity:1;fill-rule:nonzero;stroke:none"
         id="path18" /><path
         d="m 2875.16,638.98 c -143.7,0 -287.4,31.649 -397.04,94.95 -219.28,126.609 -219.27,331.86 0.01,458.47 39.44,22.77 83.29,41.44 129.96,56.02 8.16,-65.57 14.96,-115.06 14.96,-115.06 0,0 8.12,-5.6 21.42,-9.88 -10.21,-12.89 -18.27,-23.08 -20.7,-23.94 -6.67,-2.37 -8.59,-14.96 -10.1,-40.03 -0.48,-7.93 -2.25,-17.37 -2.26,-26.58 0,-3.25 0.22,-6.48 0.79,-9.59 -1.5,-25.57 3.76,-31.719 19.66,-38.781 7.14,-3.168 17.79,-4.868 28.45,-4.868 13.06,0 26.12,2.547 32.74,8.059 19.26,16.03 29.63,32.32 38.76,46.52 10.28,15.96 24.46,32.24 37.12,43.19 12.66,10.95 34.11,23.52 44.7,51.71 7.37,19.64 5.41,35.86 4.34,53.87 l -2.86,-2.87 c 0.01,0.41 0.01,0.81 0.01,1.21 0.01,15.35 -6.52,23.72 -21.05,30.25 -3.88,1.75 -8.09,2.51 -12.53,2.51 -20.21,0 -45.05,-15.77 -64.35,-26.03 3.33,24.93 7.39,55.44 11.7,88.1 34.2,5.3 69.09,8.71 104.18,10.23 5.58,-139.91 17.29,-321.881 17.29,-321.881 0,0 23.78,-15.227 56.08,-15.227 14.02,0 29.65,2.867 45.64,11.109 0,0 20.54,183.089 37.38,320.149 103.61,-12.37 202.33,-41.77 282.74,-88.19 219.28,-126.61 219.28,-331.861 0,-458.47 -109.64,-63.301 -253.34,-94.95 -397.04,-94.95 m -45.85,184.762 c -0.55,-22.32 -1.01,-31.851 17.47,-37.664 18.5,-5.816 65.07,-7.156 83.8,-12.238 18.74,-5.09 39.99,-25.301 85.03,-39.379 18.64,-5.84 36.97,-8.473 54.01,-8.473 24.13,0 45.7,5.282 61.96,14.242 27.76,15.29 35.68,26.231 31.81,47.579 l -1.39,0.152 c 0.36,1.398 0.58,2.801 0.58,4.23 0,11.09 -13.31,24.059 -76.8,52.629 -0.75,0.34 -95.24,37.371 -134.36,82.321 l -101.73,4.121 c 0,0 -9.37,-26.614 -14.61,-49.942 -2.87,-12.82 -6.65,-31.601 -6.65,-46.648 0.01,-3.961 0.27,-7.66 0.88,-10.93"
         style="fill:#eaeae7;fill-opacity:1;fill-rule:nonzero;stroke:none"
         id="path20" /><path
         d="m 335.324,1284.44 c -172.547,-99.62 -172.547,-261.14 0,-360.76 172.543,-99.61 452.301,-99.61 624.844,0 172.552,99.62 172.542,261.14 0,360.76 -172.547,99.62 -452.301,99.62 -624.844,0"
         style="fill:#dadbd8;fill-opacity:1;fill-rule:nonzero;stroke:none"
         id="path22" /><path
         d="M 1590.61,3234.44 V 2164.76 c 0,-12.84 8.49,-25.67 25.45,-35.47 33.92,-19.58 88.93,-19.58 122.86,0 16.96,9.8 25.44,22.63 25.44,35.47 v 1069.68 h -173.75"
         style="fill:#c35363;fill-opacity:1;fill-rule:nonzero;stroke:none"
         id="path24" /><path
         d="m 2253.12,2680.82 -538.16,1299.6 h -74.95 l -538.16,-1299.7 c -16.6,-40.08 7.61,-85.33 50.16,-93.77 l 8.77,-1.74 c 35.39,-7.01 59.34,-40.18 54.86,-75.98 -6.18,-49.52 40.77,-88.93 88.47,-74.25 l 26.57,8.18 c 33.08,10.18 68.57,-5.81 82.86,-37.33 l 26.76,-59 c 16.92,-37.3 62.48,-51.64 97.7,-30.75 l 104.41,61.9 c 21.63,12.83 48.52,12.83 70.15,0.01 l 104.41,-61.91 c 35.23,-20.89 80.79,-6.55 97.7,30.75 l 26.77,59.02 c 14.29,31.51 49.77,47.49 82.84,37.33 l 26.6,-8.18 c 47.7,-14.67 94.65,24.75 88.45,74.27 v 0.03 c -4.48,35.8 19.45,68.96 54.82,76 l 8.84,1.76 c 42.54,8.46 66.72,53.69 50.13,93.76"
         style="fill:#26b6a6;fill-opacity:1;fill-rule:nonzero;stroke:none"
         id="path26" /><path
         d="m 1851.96,2306.44 c -11.88,0 -23.95,3.09 -34.99,9.64 l -52.61,31.19 -51.8,30.72 c -10.82,6.41 -22.94,9.61 -35.07,9.61 -12.13,0 -24.27,-3.21 -35.08,-9.62 l -51.8,-30.71 -52.61,-31.19 c -11.05,-6.55 -23.11,-9.64 -34.99,-9.64 -25.99,0 -51.1,14.79 -62.71,40.39 l -26.76,59 c -11.39,25.13 -36.25,40.38 -62.62,40.38 -6.72,0 -13.53,-0.99 -20.24,-3.05 l -26.57,-8.18 c -6.88,-2.12 -13.73,-3.11 -20.42,-3.11 -36.91,0 -68.58,30.24 -68.6,68.54 0,2.9 0.18,5.84 0.55,8.82 0.36,2.87 0.54,5.72 0.54,8.54 0.03,32.41 -22.85,60.99 -55.4,67.44 l -8.77,1.74 c -33.33,6.61 -55.4,35.8 -55.43,67.4 -0.01,8.75 1.67,17.68 5.27,26.37 l 126.97,306.64 v 0 l -18.36,-44.34 c 5.7,-9.76 15.24,-16.96 28.82,-19.18 27.42,-4.5 46.46,-29.75 43.23,-57.34 l -1.16,-9.94 c -3.75,-32.15 21.87,-58.09 51.54,-58.09 6.1,0 12.38,1.1 18.6,3.47 l 26.62,10.14 c 6.08,2.31 12.33,3.41 18.49,3.41 19.97,0 38.92,-11.57 47.5,-30.84 l 33.02,-74.09 c 8.7,-19.53 27.79,-30.84 47.55,-30.84 9.03,0 18.19,2.36 26.58,7.36 l 99.58,59.44 c 8.21,4.9 17.43,7.35 26.65,7.35 9.22,0 18.44,-2.45 26.64,-7.35 l 89.21,-59.44 c 8.39,-5.01 17.55,-7.36 26.58,-7.36 19.76,0 38.85,11.3 47.55,30.84 l 33.03,74.09 c 8.58,19.27 27.52,30.84 47.49,30.84 6.16,0 12.41,-1.1 18.49,-3.41 l 26.63,-10.14 c 6.23,-2.37 12.5,-3.47 18.61,-3.47 29.65,0 55.28,25.94 51.53,58.08 l -1.16,9.97 c -3.22,27.59 15.81,52.84 43.22,57.34 h 0.02 c 19.08,3.13 30.26,15.99 33.84,32.15 l 113.96,-275.19 c 3.59,-8.69 5.28,-17.62 5.27,-26.36 -0.03,-31.59 -22.08,-60.78 -55.4,-67.4 l -8.84,-1.76 c -32.54,-6.47 -55.4,-35.06 -55.36,-67.46 0,-2.82 0.18,-5.67 0.54,-8.54 v -0.03 c 0.38,-2.98 0.56,-5.92 0.56,-8.82 -0.01,-38.32 -31.68,-68.56 -68.6,-68.56 -6.68,0.01 -13.54,1 -20.41,3.11 l -26.6,8.18 c -6.7,2.06 -13.51,3.04 -20.22,3.04 -26.37,0 -51.23,-15.25 -62.62,-40.37 l -26.77,-59.02 c -11.61,-25.61 -36.71,-40.39 -62.71,-40.39"
         style="fill:#06ab91;fill-opacity:1;fill-rule:nonzero;stroke:none"
         id="path28" /><path
         d="m 2139.16,2956.01 -14.98,36.19 v 0 l 14.98,-36.19 v 0"
         style="fill:#e0e1de;fill-opacity:1;fill-rule:nonzero;stroke:none"
         id="path30" /><path
         d="m 1819.91,2679.72 c -9.03,0 -18.19,2.35 -26.58,7.36 l -89.21,59.44 c -8.2,4.9 -17.42,7.35 -26.64,7.35 -9.22,0 -18.44,-2.45 -26.65,-7.35 l -99.58,-59.44 c -8.39,-5 -17.55,-7.36 -26.58,-7.36 -19.76,0 -38.85,11.31 -47.55,30.84 l -33.02,74.09 c -8.58,19.27 -27.53,30.84 -47.5,30.84 -6.16,0 -12.41,-1.1 -18.49,-3.41 l -26.62,-10.14 c -6.22,-2.37 -12.5,-3.47 -18.6,-3.47 -29.67,0 -55.29,25.94 -51.54,58.09 l 1.16,9.94 c 3.23,27.59 -15.81,52.84 -43.23,57.34 -13.58,2.22 -23.12,9.42 -28.82,19.18 l 18.36,44.34 c 3.18,-1.35 6.66,-2.35 10.46,-2.98 25.38,-4.16 43.58,-26.1 43.59,-51.23 0,-2.01 -0.12,-4.05 -0.36,-6.1 l -1.16,-9.95 c -0.25,-2.13 -0.37,-4.24 -0.37,-6.31 0.04,-29.16 24.22,-51.78 51.91,-51.78 6.1,0 12.38,1.1 18.6,3.47 l 26.62,10.14 c 6.07,2.32 12.33,3.42 18.49,3.42 19.97,0 38.91,-11.57 47.5,-30.84 l 33.02,-74.09 c 8.7,-19.54 27.79,-30.84 47.55,-30.84 9.03,0 18.19,2.35 26.58,7.36 l 99.58,59.44 c 8.21,4.9 17.43,7.34 26.65,7.34 9.22,0 18.44,-2.44 26.64,-7.34 l 89.21,-59.44 c 8.39,-5.01 17.55,-7.37 26.58,-7.37 19.76,0 38.85,11.31 47.55,30.85 l 33.03,74.09 c 8.58,19.27 27.52,30.84 47.49,30.84 6.16,0 12.41,-1.1 18.49,-3.42 l 26.63,-10.14 c 6.23,-2.37 12.51,-3.47 18.61,-3.47 27.69,0 51.86,22.61 51.9,51.77 0,2.07 -0.12,4.18 -0.37,6.32 l -1.16,9.97 c -0.24,2.05 -0.36,4.08 -0.36,6.1 0.01,25.12 18.21,47.07 43.58,51.23 h 0.02 c 7.49,1.23 13.77,3.96 18.86,7.8 l 14.98,-36.19 c -3.58,-16.16 -14.76,-29.02 -33.84,-32.15 h -0.02 c -27.41,-4.5 -46.44,-29.75 -43.22,-57.34 l 1.16,-9.97 c 3.75,-32.14 -21.88,-58.08 -51.53,-58.08 -6.11,0 -12.38,1.1 -18.61,3.47 l -26.63,10.14 c -6.08,2.31 -12.33,3.41 -18.49,3.41 -19.97,0 -38.91,-11.57 -47.49,-30.84 l -33.03,-74.09 c -8.7,-19.54 -27.79,-30.84 -47.55,-30.84"
         style="fill:#069983;fill-opacity:1;fill-rule:nonzero;stroke:none"
         id="path32" /><path
         d="m 2133.14,3058.69 -418.18,973.67 h -74.95 l -428.56,-973.69 c -15.44,-31.31 -6.62,-68.64 27.83,-74.29 27.42,-4.49 46.46,-29.74 43.23,-57.33 l -1.16,-9.95 c -4.53,-38.76 33.67,-68.5 70.14,-54.62 l 26.62,10.14 c 25.79,9.82 54.76,-2.22 65.99,-27.42 l 33.02,-74.09 c 12.68,-28.46 47.37,-39.45 74.13,-23.48 l 99.58,59.44 c 16.41,9.79 36.88,9.79 53.29,0 l 89.21,-59.44 c 26.76,-15.97 61.45,-4.98 74.13,23.48 l 33.03,74.09 c 11.23,25.21 40.19,37.24 65.98,27.42 l 26.63,-10.14 c 36.47,-13.88 74.67,15.86 70.14,54.62 l -1.16,9.97 c -3.22,27.59 15.81,52.83 43.22,57.33 h 0.02 c 34.44,5.66 43.26,42.98 27.82,74.29"
         style="fill:#26b6a6;fill-opacity:1;fill-rule:nonzero;stroke:none"
         id="path34" /><path
         d="m 1819.91,2740.26 c -9.03,0 -18.19,2.36 -26.58,7.37 l -89.21,59.44 c -8.2,4.9 -17.42,7.34 -26.64,7.34 -9.22,0 -18.44,-2.44 -26.65,-7.34 l -99.58,-59.44 c -8.39,-5.01 -17.55,-7.36 -26.58,-7.36 -19.76,0 -38.85,11.3 -47.55,30.84 l -33.02,74.09 c -8.59,19.27 -27.53,30.84 -47.5,30.84 -6.16,0 -12.42,-1.1 -18.49,-3.42 l -26.62,-10.14 c -6.22,-2.37 -12.5,-3.47 -18.6,-3.47 -27.69,0 -51.87,22.62 -51.91,51.78 0,2.07 0.12,4.18 0.37,6.31 l 1.16,9.95 c 0.24,2.05 0.36,4.09 0.36,6.1 -0.01,25.13 -18.21,47.07 -43.59,51.23 -23.62,3.88 -35.19,22.64 -35.16,44.14 0.02,9.87 2.48,20.31 7.33,30.15 l 118.65,269.57 c 3.54,-4.22 7.75,-7.99 12.86,-10.85 l 2.32,-1.31 c 16.04,-8.98 25.33,-26.52 23.78,-44.83 -2.39,-28.09 20.05,-50.85 46.55,-50.85 3.95,0 8,0.51 12.06,1.58 l 18.17,4.78 c 3.97,1.05 7.98,1.55 11.94,1.55 16.95,0 32.99,-9.23 41.29,-24.72 l 24.93,-46.5 c 8.44,-15.75 24.61,-24.73 41.33,-24.73 7.31,0 14.73,1.72 21.65,5.34 l 68.81,35.94 c 6.79,3.54 14.24,5.32 21.69,5.32 7.45,0 14.89,-1.78 21.69,-5.32 l 68.82,-35.95 c 6.92,-3.61 14.34,-5.33 21.65,-5.33 16.72,0 32.89,8.98 41.32,24.72 l 24.95,46.52 c 8.3,15.49 24.34,24.72 41.28,24.72 3.96,0 7.97,-0.51 11.94,-1.55 l 18.17,-4.79 c 4.07,-1.07 8.11,-1.58 12.06,-1.58 26.51,0 48.95,22.76 46.57,50.85 l -0.01,0.01 c -1.56,18.32 7.74,35.85 23.77,44.84 l 2.33,1.3 c 2.8,1.57 5.35,3.41 7.68,5.42 l -19.38,45.12 v 0 l 132.82,-309.25 c 4.86,-9.84 7.31,-20.29 7.33,-30.15 0.03,-21.5 -11.54,-40.26 -35.15,-44.14 h -0.02 c -25.37,-4.16 -43.57,-26.11 -43.58,-51.23 0,-2.02 0.12,-4.05 0.36,-6.1 l 1.16,-9.97 c 0.25,-2.14 0.37,-4.25 0.37,-6.32 -0.04,-29.16 -24.21,-51.77 -51.9,-51.77 -6.1,0 -12.38,1.1 -18.61,3.47 l -26.63,10.14 c -6.08,2.32 -12.33,3.42 -18.49,3.42 -19.97,0 -38.91,-11.57 -47.49,-30.84 l -33.03,-74.09 c -8.7,-19.54 -27.79,-30.85 -47.55,-30.85"
         style="fill:#14b099;fill-opacity:1;fill-rule:nonzero;stroke:none"
         id="path36" /><path
         d="m 1330.1,3328.24 c 0,0 0,0 0,0.01 l 19.35,43.96 c 0,0 0,0 0,-0.01 l -19.35,-43.96"
         style="fill:#e0e1de;fill-opacity:1;fill-rule:nonzero;stroke:none"
         id="path38" /><path
         d="m 1789.64,3132.36 c -7.31,0 -14.73,1.72 -21.65,5.33 l -68.82,35.95 c -6.8,3.54 -14.24,5.32 -21.69,5.32 -7.45,0 -14.9,-1.78 -21.69,-5.32 l -68.81,-35.94 c -6.92,-3.62 -14.34,-5.34 -21.65,-5.34 -16.72,0 -32.89,8.98 -41.33,24.73 l -24.93,46.5 c -8.3,15.49 -24.34,24.72 -41.29,24.72 -3.96,0 -7.97,-0.5 -11.94,-1.55 l -18.17,-4.78 c -4.06,-1.07 -8.11,-1.58 -12.06,-1.58 -26.5,0 -48.94,22.76 -46.55,50.85 1.55,18.31 -7.74,35.85 -23.78,44.83 l -2.32,1.31 c -5.11,2.86 -9.32,6.63 -12.86,10.85 l 19.35,43.96 c 12.36,-8.74 19.75,-22.96 19.77,-38.13 0.01,-1.35 -0.05,-2.71 -0.16,-4.07 -0.12,-1.37 -0.18,-2.73 -0.18,-4.07 -0.01,-26.18 21.53,-46.78 46.73,-46.78 3.96,0 8,0.51 12.06,1.58 l 18.17,4.79 c 3.97,1.04 7.98,1.55 11.94,1.55 16.94,0 32.99,-9.23 41.29,-24.72 l 24.93,-46.51 c 8.44,-15.75 24.61,-24.72 41.33,-24.72 7.31,0 14.73,1.71 21.65,5.33 l 68.81,35.94 c 6.79,3.55 14.24,5.32 21.69,5.32 7.45,0 14.89,-1.77 21.69,-5.32 l 68.82,-35.94 c 6.92,-3.62 14.34,-5.34 21.65,-5.34 16.72,0 32.89,8.98 41.32,24.73 l 24.95,46.51 c 8.3,15.49 24.34,24.72 41.28,24.72 3.96,0 7.97,-0.51 11.94,-1.55 l 18.17,-4.79 c 4.07,-1.07 8.11,-1.58 12.07,-1.58 25.21,0 46.74,20.6 46.73,46.78 0,1.34 -0.06,2.7 -0.17,4.07 l -0.01,0.02 c -0.11,1.36 -0.17,2.71 -0.17,4.06 0.02,12.9 5.37,25.12 14.57,33.86 l 19.38,-45.12 c -2.33,-2.01 -4.88,-3.85 -7.68,-5.42 l -2.33,-1.3 c -16.03,-8.99 -25.33,-26.52 -23.77,-44.84 l 0.01,-0.01 c 2.38,-28.09 -20.06,-50.85 -46.57,-50.85 -3.95,0 -7.99,0.51 -12.06,1.58 l -18.17,4.79 c -3.97,1.04 -7.98,1.55 -11.94,1.55 -16.94,0 -32.98,-9.23 -41.28,-24.72 l -24.95,-46.52 c -8.43,-15.74 -24.6,-24.72 -41.32,-24.72"
         style="fill:#09ac93;fill-opacity:1;fill-rule:nonzero;stroke:none"
         id="path40" /><path
         d="m 2028.97,3441.64 -314.32,660.72 -2.45,3.97 c -6.98,12 -19.83,20.15 -34.71,20.15 -14.88,0 -27.73,-8.15 -34.71,-20.15 l -2.52,-4.08 L 1326,3441.63 c -14,-22.68 -6.29,-52.46 16.96,-65.49 l 2.32,-1.3 c 16.04,-8.99 25.33,-26.52 23.78,-44.84 -2.75,-32.27 27.3,-57.52 58.61,-49.27 l 18.17,4.79 c 20.96,5.52 42.99,-4.07 53.23,-23.17 l 24.93,-46.51 c 12.14,-22.63 40.22,-31.28 62.98,-19.39 l 68.81,35.94 c 13.59,7.09 29.79,7.09 43.38,0 l 68.82,-35.94 c 22.76,-11.89 50.85,-3.24 62.97,19.39 l 24.95,46.51 c 10.24,19.11 32.25,28.69 53.22,23.17 l 18.17,-4.79 c 31.33,-8.25 61.36,17 58.63,49.27 l -0.01,0.02 c -1.56,18.31 7.74,35.84 23.77,44.83 l 2.33,1.31 c 23.25,13.03 30.96,42.8 16.95,65.48"
         style="fill:#26b6a6;fill-opacity:1;fill-rule:nonzero;stroke:none"
         id="path42" /><path
         d="m 1789.64,3191.11 c -7.31,0 -14.73,1.72 -21.65,5.34 l -68.82,35.94 c -6.8,3.55 -14.24,5.32 -21.69,5.32 -7.45,0 -14.9,-1.77 -21.69,-5.32 l -68.81,-35.94 c -6.92,-3.62 -14.34,-5.33 -21.65,-5.33 -16.72,0 -32.89,8.97 -41.33,24.72 l -24.93,46.51 c -8.3,15.49 -24.35,24.72 -41.29,24.72 -3.96,0 -7.97,-0.51 -11.94,-1.55 l -18.17,-4.79 c -4.06,-1.07 -8.1,-1.58 -12.06,-1.58 -25.2,0 -46.74,20.6 -46.73,46.78 0,1.34 0.06,2.7 0.18,4.07 0.11,1.36 0.17,2.72 0.16,4.07 -0.02,16.81 -9.09,32.45 -23.94,40.77 l -2.32,1.3 c -15.4,8.63 -23.98,24.6 -23.95,40.99 0.01,8.36 2.26,16.83 6.99,24.5 l 314.26,660.62 2.52,4.08 c 6.98,12 19.83,20.15 34.71,20.15 14.88,0 27.73,-8.15 34.71,-20.15 l 2.45,-3.97 314.32,-660.72 c 4.73,-7.66 6.99,-16.13 7,-24.5 0.02,-16.39 -8.56,-32.35 -23.95,-40.98 l -2.33,-1.31 c -14.84,-8.32 -23.91,-23.97 -23.94,-40.77 0,-1.35 0.06,-2.7 0.17,-4.06 l 0.01,-0.02 c 0.11,-1.37 0.17,-2.73 0.17,-4.07 0.01,-26.18 -21.52,-46.78 -46.73,-46.78 -3.96,0 -8,0.51 -12.07,1.58 l -18.17,4.79 c -3.97,1.04 -7.98,1.55 -11.94,1.55 -16.94,0 -32.98,-9.23 -41.28,-24.72 l -24.95,-46.51 c -8.43,-15.75 -24.6,-24.73 -41.32,-24.73"
         style="fill:#1db3a0;fill-opacity:1;fill-rule:nonzero;stroke:none"
         id="path44" /><path
         d="m 1635.57,2131.21 c -0.75,28.75 -24.37,51.86 -53.35,51.86 -28.97,0 -52.54,-23.11 -53.29,-51.86 l -0.05,-1.49 0.05,-1.49 c 0.6,-7.41 5.78,-14.67 15.56,-20.31 20.83,-12.02 54.65,-12.02 75.47,0 9.79,5.64 15,12.9 15.61,20.31 l 0.04,1.49 -0.04,1.49"
         style="fill:#273e47;fill-opacity:1;fill-rule:nonzero;stroke:none"
         id="path46" /><path
         d="m 1619.96,2107.92 c 9.79,5.64 15,12.9 15.61,20.31 l 0.04,1.49 -0.04,1.49 c -0.51,19.54 -11.6,36.45 -27.74,45.3 0.26,-0.52 26.53,-33.5 7.12,-55.5 -13.4,-15.19 -59.45,-17.96 -79.66,-5.97 2.39,-2.56 5.45,-4.96 9.2,-7.12 20.83,-12.02 54.65,-12.02 75.47,0"
         style="fill:#17282f;fill-opacity:1;fill-rule:nonzero;stroke:none"
         id="path48" /><path
         d="m 1549.33,2104.37 c -0.53,20.3 -17.21,36.62 -37.67,36.62 -20.47,0 -37.12,-16.32 -37.64,-36.62 l -0.03,-1.06 0.03,-1.05 c 0.43,-5.23 4.08,-10.36 10.99,-14.34 14.7,-8.49 38.59,-8.49 53.3,0 6.91,3.98 10.59,9.11 11.02,14.34 l 0.03,1.05 -0.03,1.06"
         style="fill:#33535f;fill-opacity:1;fill-rule:nonzero;stroke:none"
         id="path50" /><path
         d="m 1538.31,2087.92 c 6.91,3.98 10.59,9.11 11.02,14.34 l 0.03,1.05 -0.03,1.06 c -0.11,4.4 -1.03,8.6 -2.53,12.5 0.92,-16.15 -6.73,-25.95 -30.53,-28.99 -24.54,-3.13 -39.35,7.05 -41.4,10.73 1.49,-3.92 4.85,-7.65 10.14,-10.69 14.7,-8.49 38.59,-8.49 53.3,0"
         style="fill:#273e47;fill-opacity:1;fill-rule:nonzero;stroke:none"
         id="path52" /><path
         d="m 1825.61,2142.06 c -0.52,20.15 -17.08,36.35 -37.39,36.35 -20.31,0 -36.83,-16.2 -37.35,-36.35 l -0.03,-1.04 0.03,-1.05 c 0.43,-5.19 4.05,-10.28 10.91,-14.23 14.59,-8.42 38.3,-8.42 52.89,0 6.86,3.95 10.51,9.04 10.94,14.23 l 0.03,1.05 -0.03,1.04"
         style="fill:#33535f;fill-opacity:1;fill-rule:nonzero;stroke:none"
         id="path54" /><path
         d="m 1814.67,2125.74 c 6.86,3.95 10.51,9.04 10.94,14.23 l 0.03,1.05 -0.03,1.04 c -0.11,4.37 -1.02,8.54 -2.52,12.42 0.92,-16.03 -6.67,-25.77 -30.29,-28.77 -24.35,-3.11 -39.05,6.99 -41.08,10.64 1.47,-3.9 4.81,-7.59 10.06,-10.61 14.59,-8.42 38.3,-8.42 52.89,0"
         style="fill:#273e47;fill-opacity:1;fill-rule:nonzero;stroke:none"
         id="path56" /><path
         d="M 736.02,2253.76 V 1097.8 c 0,-13.87 -9.172,-27.74 -27.5,-38.32 -36.661,-21.17 -96.11,-21.17 -132.77,0 -18.328,10.58 -27.488,24.45 -27.488,38.32 V 2253.76 H 736.02"
         style="fill:#c35363;fill-opacity:1;fill-rule:nonzero;stroke:none"
         id="path58" /><path
         d="M 20.0703,1655.49 601.633,3059.91 h 81.004 L 1264.21,1655.38 c 17.93,-43.32 -8.23,-92.22 -54.22,-101.33 l -9.47,-1.88 c -38.24,-7.58 -64.12,-43.43 -59.29,-82.11 6.69,-53.51 -44.06,-96.11 -95.6,-80.24 l -28.71,8.83 c -35.748,11.01 -74.1,-6.27 -89.549,-40.33 l -28.918,-63.76 c -18.273,-40.31 -67.512,-55.81 -105.578,-33.23 l -112.832,66.89 c -23.371,13.86 -52.438,13.86 -75.809,0.01 l -112.832,-66.91 c -38.062,-22.57 -87.304,-7.07 -105.582,33.23 l -28.925,63.78 c -15.446,34.06 -53.786,51.33 -89.528,40.34 l -28.746,-8.84 c -51.547,-15.85 -102.285,26.76 -95.582,80.27 l 0.008,0.04 c 4.836,38.68 -21.02,74.52 -59.2501,82.12 l -9.5547,1.9 c -45.9688,9.14 -72.10157,58.03 -54.1719,101.33"
         style="fill:#26b6a6;fill-opacity:1;fill-rule:nonzero;stroke:none"
         id="path60" /><path
         d="m 453.598,1250.91 c -28.102,0 -55.231,15.97 -67.778,43.64 l -28.925,63.78 c -12.317,27.15 -39.184,43.64 -67.684,43.64 -7.246,0 -14.598,-1.07 -21.844,-3.3 l -28.746,-8.84 c -7.422,-2.28 -14.828,-3.35 -22.051,-3.35 -39.902,0 -74.125,32.68 -74.129,74.09 0,3.13 0.196,6.31 0.598,9.53 l 0.008,0.04 c 0.387,3.1 0.574,6.18 0.578,9.22 0.039,35.02 -24.656,65.91 -59.8281,72.9 l -9.5547,1.9 c -36.0039,7.16 -59.8359,38.7 -59.8672,72.84 -0.0078,9.45 1.8086,19.1 5.6953,28.49 l 139.3437,336.5 h 0.004 l -16.199,-39.12 c 3.879,-17.46 15.957,-31.36 36.586,-34.75 h 0.008 c 29.617,-4.86 50.191,-32.14 46.714,-61.96 l -1.261,-10.77 c -4.051,-34.73 23.644,-62.77 55.691,-62.77 6.598,0 13.379,1.19 20.106,3.76 l 28.781,10.95 c 6.566,2.5 13.328,3.69 19.98,3.69 21.578,0 42.047,-12.51 51.324,-33.33 l 35.692,-80.07 c 9.406,-21.11 30.027,-33.33 51.387,-33.33 9.75,0 19.656,2.55 28.718,7.96 l 96.407,64.24 c 8.867,5.29 18.832,7.94 28.796,7.94 9.961,0 19.926,-2.65 28.793,-7.94 l 107.614,-64.24 c 9.062,-5.4 18.968,-7.95 28.718,-7.95 21.364,0 41.985,12.22 51.391,33.33 l 35.684,80.06 c 9.277,20.82 29.75,33.33 51.328,33.33 6.656,0 13.414,-1.19 19.984,-3.69 l 28.766,-10.95 c 6.724,-2.57 13.514,-3.76 20.114,-3.76 32.05,0 59.74,28.04 55.69,62.77 l -1.26,10.76 c -3.48,29.81 17.09,57.1 46.72,61.95 14.68,2.41 24.98,10.18 31.14,20.74 l -19.84,47.91 h 0.01 l 137.21,-331.37 c 3.89,-9.39 5.7,-19.05 5.69,-28.5 -0.03,-34.15 -23.89,-65.69 -59.91,-72.83 l -9.47,-1.88 c -35.17,-6.98 -59.9,-37.87 -59.87,-72.89 0.01,-3.05 0.2,-6.13 0.58,-9.22 0.41,-3.22 0.6,-6.4 0.6,-9.53 -0.02,-41.4 -34.24,-74.07 -74.13,-74.07 -7.23,0 -14.64,1.07 -22.07,3.36 l -28.71,8.83 c -7.26,2.23 -14.62,3.3 -21.877,3.3 -28.496,0 -55.359,-16.48 -67.672,-43.63 l -28.918,-63.76 c -12.543,-27.67 -39.676,-43.65 -67.769,-43.65 -12.836,0 -25.871,3.34 -37.809,10.42 l -56.855,33.7 -55.977,33.19 c -11.688,6.93 -24.801,10.39 -37.906,10.39 -13.11,0 -26.215,-3.46 -37.903,-10.38 l -55.972,-33.2 -56.86,-33.71 c -11.933,-7.07 -24.972,-10.41 -37.804,-10.41"
         style="fill:#06ab91;fill-opacity:1;fill-rule:nonzero;stroke:none"
         id="path62" /><path
         d="m 488.227,1654.29 c -21.36,0 -41.981,12.22 -51.387,33.33 l -35.692,80.07 c -9.277,20.82 -29.746,33.33 -51.324,33.33 -6.652,0 -13.414,-1.19 -19.98,-3.69 l -28.781,-10.95 c -6.727,-2.57 -13.508,-3.76 -20.106,-3.76 -32.047,0 -59.742,28.04 -55.691,62.77 l 1.261,10.77 c 3.477,29.82 -17.097,57.1 -46.714,61.96 h -0.008 c -20.629,3.39 -32.707,17.29 -36.586,34.75 l 16.199,39.12 c 5.492,-4.16 12.281,-7.1 20.387,-8.43 l 0.008,-0.01 c 27.421,-4.5 47.085,-28.21 47.097,-55.36 0,-2.18 -0.125,-4.38 -0.383,-6.59 l -1.261,-10.78 c -0.27,-2.31 -0.399,-4.59 -0.395,-6.83 0.039,-31.5 26.164,-55.94 56.086,-55.94 6.598,0 13.379,1.19 20.106,3.75 l 28.781,10.96 c 6.566,2.5 13.324,3.69 19.976,3.69 21.578,0 42.051,-12.51 51.328,-33.33 l 35.692,-80.06 c 9.406,-21.12 30.027,-33.34 51.39,-33.33 9.75,0 19.657,2.54 28.715,7.95 l 96.407,64.24 c 8.867,5.29 18.832,7.94 28.796,7.94 9.961,0 19.926,-2.65 28.793,-7.94 l 107.614,-64.24 c 9.062,-5.4 18.965,-7.95 28.718,-7.95 21.36,0 41.985,12.22 51.391,33.33 l 35.684,80.06 c 9.281,20.83 29.754,33.33 51.336,33.33 6.652,0 13.41,-1.19 19.976,-3.69 l 28.766,-10.96 c 6.734,-2.56 13.514,-3.75 20.114,-3.75 29.91,0.01 56.04,24.44 56.08,55.95 0.01,2.24 -0.12,4.52 -0.39,6.82 l -1.26,10.76 c -0.26,2.21 -0.39,4.41 -0.39,6.59 0.01,27.15 19.68,50.87 47.11,55.36 4.1,0.68 7.87,1.77 11.3,3.22 l 19.84,-47.91 c -6.16,-10.56 -16.46,-18.33 -31.14,-20.74 -29.63,-4.85 -50.2,-32.14 -46.72,-61.95 l 1.26,-10.76 c 4.05,-34.73 -23.64,-62.77 -55.69,-62.77 -6.6,0 -13.39,1.19 -20.114,3.76 l -28.766,10.95 c -6.57,2.5 -13.328,3.69 -19.984,3.69 -21.578,0 -42.051,-12.51 -51.328,-33.33 l -35.684,-80.06 c -9.406,-21.11 -30.027,-33.33 -51.391,-33.33 -9.75,0 -19.656,2.55 -28.718,7.95 l -107.614,64.24 c -8.867,5.29 -18.832,7.94 -28.793,7.94 -9.964,0 -19.929,-2.65 -28.796,-7.94 l -96.407,-64.24 c -9.062,-5.41 -18.968,-7.96 -28.718,-7.96"
         style="fill:#069983;fill-opacity:1;fill-rule:nonzero;stroke:none"
         id="path64" /><path
         d="m 149.73,2063.84 451.903,1052.2 h 81.004 L 1145.76,2063.82 c 16.68,-33.84 7.16,-74.18 -30.07,-80.29 -29.63,-4.85 -50.2,-32.14 -46.72,-61.95 l 1.26,-10.76 c 4.89,-41.88 -36.39,-74.03 -75.804,-59.02 l -28.766,10.96 c -27.867,10.61 -59.172,-2.4 -71.312,-29.64 l -35.684,-80.06 c -13.699,-30.75 -51.195,-42.63 -80.109,-25.38 l -107.614,64.24 c -17.734,10.58 -39.855,10.58 -57.589,0 l -96.407,-64.24 c -28.91,-17.25 -66.406,-5.38 -80.105,25.38 l -35.692,80.06 c -12.136,27.24 -43.441,40.25 -71.304,29.64 l -28.781,-10.96 c -39.403,-15.01 -80.684,17.14 -75.797,59.02 l 1.261,10.78 c 3.477,29.81 -17.097,57.09 -46.714,61.95 l -0.008,0.01 c -37.235,6.1 -46.762,46.44 -30.075,80.28"
         style="fill:#26b6a6;fill-opacity:1;fill-rule:nonzero;stroke:none"
         id="path66" /><path
         d="m 488.23,1719.73 c -21.363,-0.01 -41.984,12.21 -51.39,33.33 l -35.692,80.06 c -9.277,20.82 -29.75,33.33 -51.328,33.33 -6.652,0 -13.41,-1.19 -19.976,-3.69 l -28.781,-10.96 c -6.727,-2.56 -13.508,-3.75 -20.106,-3.75 -29.922,0 -56.047,24.44 -56.086,55.94 -0.004,2.24 0.125,4.52 0.395,6.83 l 1.261,10.78 c 0.258,2.21 0.383,4.41 0.383,6.59 -0.012,27.15 -19.676,50.86 -47.097,55.36 l -0.008,0.01 c -25.453,4.17 -37.957,24.34 -37.992,47.49 -0.016,10.72 2.636,22.08 7.917,32.79 l 122.586,285.43 c 2.528,-2.18 5.282,-4.16 8.301,-5.85 l 2.52,-1.42 c 17.324,-9.71 27.371,-28.66 25.683,-48.45 v -0.01 c -2.578,-30.35 21.676,-54.95 50.313,-54.95 4.273,0 8.64,0.54 13.031,1.7 l 19.645,5.18 c 4.293,1.13 8.625,1.67 12.902,1.67 18.309,0 35.641,-9.97 44.613,-26.71 l 26.953,-50.27 c 9.121,-17.01 26.59,-26.71 44.657,-26.71 7.902,0 15.914,1.85 23.402,5.76 l 74.367,38.84 c 7.344,3.84 15.395,5.75 23.442,5.75 8.05,0 16.097,-1.91 23.441,-5.75 l 74.352,-38.84 c 7.484,-3.91 15.5,-5.76 23.402,-5.76 18.07,0 35.539,9.7 44.66,26.72 l 26.945,50.25 c 8.973,16.74 26.305,26.72 44.614,26.72 4.281,0 8.613,-0.55 12.906,-1.68 l 19.633,-5.17 c 4.39,-1.16 8.761,-1.7 13.035,-1.7 28.64,-0.01 52.89,24.6 50.308,54.95 -1.683,19.79 8.372,38.74 25.699,48.45 l 2.51,1.41 c 5.52,3.09 10.07,7.17 13.9,11.73 l 128.21,-291.31 c 5.25,-10.64 7.9,-21.93 7.92,-32.59 0.03,-23.24 -12.47,-43.51 -37.99,-47.7 -27.43,-4.49 -47.1,-28.21 -47.11,-55.36 0,-2.18 0.13,-4.38 0.39,-6.59 l 1.26,-10.76 c 0.27,-2.3 0.4,-4.58 0.39,-6.82 -0.04,-31.51 -26.17,-55.94 -56.08,-55.95 -6.6,0 -13.38,1.19 -20.114,3.75 l -28.766,10.96 c -6.566,2.5 -13.324,3.69 -19.976,3.69 -21.582,0 -42.055,-12.5 -51.336,-33.33 l -35.684,-80.06 c -9.406,-21.11 -30.031,-33.33 -51.391,-33.33 -9.753,0 -19.656,2.55 -28.718,7.95 l -107.614,64.24 c -8.867,5.29 -18.832,7.94 -28.793,7.94 -9.964,0 -19.929,-2.65 -28.796,-7.94 l -96.407,-64.24 c -9.058,-5.41 -18.965,-7.95 -28.715,-7.95"
         style="fill:#14b099;fill-opacity:1;fill-rule:nonzero;stroke:none"
         id="path68" /><path
         d="m 272.316,2349.27 v 0 l 20.946,48.76 v 0 l -20.946,-48.76 m 745.234,5.86 -20.913,47.51 v 0 l 20.913,-47.51 v 0"
         style="fill:#e0e1de;fill-opacity:1;fill-rule:nonzero;stroke:none"
         id="path70" /><path
         d="m 520.934,2143.45 c -18.067,0 -35.536,9.7 -44.657,26.71 l -26.953,50.27 c -8.972,16.74 -26.304,26.71 -44.613,26.71 -4.277,0 -8.609,-0.54 -12.902,-1.67 l -19.645,-5.18 c -4.391,-1.16 -8.758,-1.7 -13.031,-1.7 -28.637,0 -52.891,24.6 -50.313,54.95 v 0.01 c 1.688,19.79 -8.359,38.74 -25.683,48.45 l -2.52,1.42 c -3.019,1.69 -5.773,3.67 -8.301,5.85 l 20.946,48.76 c 9.937,-9.45 15.718,-22.65 15.742,-36.59 0.004,-1.46 -0.059,-2.92 -0.184,-4.39 v -0.02 c -0.125,-1.48 -0.187,-2.95 -0.187,-4.4 -0.012,-28.29 23.258,-50.55 50.5,-50.55 4.269,0 8.64,0.54 13.031,1.7 l 19.645,5.18 c 4.293,1.13 8.621,1.67 12.902,1.67 18.309,0 35.641,-9.97 44.613,-26.71 l 26.953,-50.27 c 9.121,-17.01 26.59,-26.71 44.661,-26.71 7.898,0 15.914,1.86 23.398,5.76 l 74.367,38.85 c 7.344,3.83 15.391,5.74 23.438,5.74 8.05,0 16.101,-1.91 23.445,-5.75 l 74.352,-38.83 c 7.484,-3.91 15.5,-5.77 23.402,-5.77 18.07,0 35.539,9.7 44.66,26.72 l 26.945,50.25 c 8.973,16.75 26.301,26.72 44.61,26.72 4.281,0 8.617,-0.55 12.91,-1.68 l 19.633,-5.17 c 4.394,-1.16 8.761,-1.7 13.035,-1.7 27.238,0 50.515,22.26 50.5,50.55 -0.004,1.45 -0.067,2.92 -0.192,4.4 -0.125,1.47 -0.183,2.93 -0.183,4.39 0.027,16.4 8.023,31.77 21.379,41.22 l 20.913,-47.51 c -3.83,-4.56 -8.38,-8.64 -13.9,-11.73 l -2.51,-1.41 c -17.327,-9.71 -27.382,-28.66 -25.699,-48.45 2.582,-30.35 -21.668,-54.96 -50.308,-54.95 -4.274,0 -8.645,0.54 -13.035,1.7 l -19.633,5.17 c -4.293,1.13 -8.625,1.68 -12.906,1.68 -18.309,0 -35.641,-9.98 -44.614,-26.72 L 808,2170.17 c -9.121,-17.02 -26.59,-26.72 -44.66,-26.72 -7.902,0 -15.918,1.85 -23.402,5.76 l -74.352,38.84 c -7.344,3.84 -15.391,5.75 -23.441,5.75 -8.047,0 -16.098,-1.91 -23.442,-5.75 l -74.367,-38.84 c -7.488,-3.91 -15.5,-5.76 -23.402,-5.76"
         style="fill:#09ac93;fill-opacity:1;fill-rule:nonzero;stroke:none"
         id="path72" /><path
         d="m 262.305,2477.67 339.668,714.01 2.656,4.3 c 7.543,12.96 21.43,21.77 37.504,21.77 16.078,0 29.965,-8.81 37.504,-21.77 l 2.73,-4.41 339.603,-713.91 c 15.14,-24.51 6.8,-56.69 -18.32,-70.77 l -2.51,-1.41 c -17.327,-9.71 -27.382,-28.66 -25.699,-48.45 2.969,-34.87 -29.5,-62.16 -63.343,-53.25 l -19.633,5.17 c -22.656,5.97 -46.449,-4.38 -57.52,-25.04 L 808,2233.66 c -13.109,-24.46 -43.465,-33.8 -68.062,-20.95 l -74.352,38.83 c -14.684,7.67 -32.199,7.67 -46.883,0.01 l -74.367,-38.85 c -24.598,-12.84 -54.949,-3.5 -68.059,20.95 l -26.953,50.27 c -11.07,20.65 -34.859,31 -57.515,25.04 l -19.645,-5.18 c -33.84,-8.91 -66.305,18.38 -63.344,53.25 v 0.02 c 1.688,19.78 -8.359,38.73 -25.683,48.45 l -2.52,1.41 c -25.121,14.08 -33.449,46.26 -18.312,70.76"
         style="fill:#26b6a6;fill-opacity:1;fill-rule:nonzero;stroke:none"
         id="path74" /><path
         d="m 520.938,2206.94 c -18.071,0 -35.54,9.7 -44.661,26.71 l -26.953,50.27 c -8.972,16.74 -26.304,26.71 -44.613,26.71 -4.281,0 -8.609,-0.54 -12.902,-1.67 l -19.645,-5.18 c -4.391,-1.16 -8.762,-1.7 -13.031,-1.7 -27.242,0 -50.512,22.26 -50.5,50.55 0,1.45 0.062,2.92 0.187,4.4 v 0.02 c 0.125,1.47 0.188,2.93 0.184,4.39 -0.027,18.16 -9.828,35.06 -25.867,44.06 l -2.52,1.41 c -16.633,9.32 -25.902,26.58 -25.879,44.29 0.016,9.04 2.45,18.19 7.567,26.47 l 339.668,714.01 2.656,4.3 c 7.543,12.96 21.43,21.77 37.504,21.77 16.078,0 29.965,-8.81 37.504,-21.77 l 2.73,-4.41 339.603,-713.91 c 5.12,-8.28 7.55,-17.44 7.56,-26.48 0.03,-17.71 -9.25,-34.96 -25.88,-44.29 l -2.51,-1.41 c -16.042,-8.99 -25.851,-25.89 -25.882,-44.06 0,-1.46 0.058,-2.92 0.183,-4.39 0.125,-1.48 0.188,-2.95 0.192,-4.4 0.015,-28.29 -23.262,-50.55 -50.5,-50.55 -4.274,0 -8.641,0.54 -13.035,1.7 l -19.633,5.17 c -4.293,1.13 -8.629,1.68 -12.91,1.68 -18.309,0 -35.637,-9.97 -44.61,-26.72 L 808,2233.66 c -9.121,-17.02 -26.59,-26.72 -44.66,-26.72 -7.902,0 -15.918,1.86 -23.402,5.77 l -74.352,38.83 c -7.344,3.84 -15.395,5.75 -23.445,5.75 -8.047,0 -16.094,-1.91 -23.438,-5.74 l -74.367,-38.85 c -7.484,-3.9 -15.5,-5.76 -23.398,-5.76"
         style="fill:#1db3a0;fill-opacity:1;fill-rule:nonzero;stroke:none"
         id="path76" /><path
         d="m 687.434,1061.55 c 0.804,31.06 26.336,56.04 57.648,56.04 31.313,0 56.793,-24.98 57.594,-56.04 l 0.051,-1.61 -0.051,-1.61 c -0.653,-8.01 -6.242,-15.86 -16.813,-21.96 -22.508,-12.98 -59.058,-12.98 -81.562,0 -10.578,6.1 -16.211,13.95 -16.867,21.96 l -0.047,1.61 0.047,1.61"
         style="fill:#273e47;fill-opacity:1;fill-rule:nonzero;stroke:none"
         id="path78" /><path
         d="m 704.301,1036.37 c -10.578,6.1 -16.211,13.95 -16.867,21.96 l -0.047,1.61 0.047,1.61 c 0.546,21.11 12.531,39.39 29.976,48.95 -0.281,-0.56 -28.672,-36.21 -7.695,-59.98 14.48,-16.41 64.242,-19.41 86.09,-6.45 -2.59,-2.76 -5.895,-5.36 -9.942,-7.7 -22.508,-12.98 -59.058,-12.98 -81.562,0"
         style="fill:#17282f;fill-opacity:1;fill-rule:nonzero;stroke:none"
         id="path80" /><path
         d="m 780.629,1032.54 c 0.57,21.94 18.598,39.57 40.711,39.57 22.113,0 40.109,-17.63 40.676,-39.57 l 0.035,-1.14 -0.035,-1.14 c -0.465,-5.65 -4.411,-11.2 -11.875,-15.5 -15.895,-9.18 -41.711,-9.18 -57.598,0 -7.473,4.3 -11.449,9.85 -11.914,15.5 l -0.035,1.14 0.035,1.14"
         style="fill:#33535f;fill-opacity:1;fill-rule:nonzero;stroke:none"
         id="path82" /><path
         d="m 792.543,1014.76 c -7.473,4.3 -11.449,9.85 -11.914,15.5 l -0.035,1.14 0.035,1.14 c 0.125,4.75 1.113,9.29 2.742,13.51 -1.004,-17.46 7.266,-28.05 32.984,-31.33 26.524,-3.38 42.532,7.62 44.743,11.59 -1.61,-4.24 -5.246,-8.26 -10.957,-11.55 -15.895,-9.18 -41.711,-9.18 -57.598,0"
         style="fill:#273e47;fill-opacity:1;fill-rule:nonzero;stroke:none"
         id="path84" /><path
         d="m 482.063,1073.27 c 0.566,21.78 18.457,39.28 40.406,39.28 21.941,0 39.801,-17.5 40.359,-39.28 l 0.039,-1.12 -0.039,-1.13 c -0.453,-5.61 -4.367,-11.12 -11.781,-15.39 -15.77,-9.1 -41.387,-9.1 -57.16,0 -7.414,4.27 -11.36,9.78 -11.824,15.39 l -0.036,1.13 0.036,1.12"
         style="fill:#33535f;fill-opacity:1;fill-rule:nonzero;stroke:none"
         id="path86" /><path
         d="m 493.887,1055.63 c -7.414,4.27 -11.364,9.78 -11.824,15.39 l -0.036,1.13 0.036,1.12 c 0.125,4.73 1.105,9.23 2.718,13.41 -0.988,-17.32 7.219,-27.83 32.742,-31.08 26.317,-3.36 42.204,7.56 44.399,11.5 -1.598,-4.21 -5.203,-8.2 -10.875,-11.47 -15.77,-9.1 -41.387,-9.1 -57.16,0"
         style="fill:#273e47;fill-opacity:1;fill-rule:nonzero;stroke:none"
         id="path88" /><path
         d="m 1889.05,966.18 58.57,33.468 c 0,0 28.09,154.812 7.08,287.892 -29.54,187.11 -156.94,251.65 -203.2,233.04 -46.27,-18.59 -57.15,-74.02 26.41,-182.13 49.31,-63.79 112.72,-198.63 111.14,-372.27"
         style="fill:#26b6a6;fill-opacity:1;fill-rule:nonzero;stroke:none"
         id="path90" /><path
         d="m 1889.05,966.18 c 0,0 22.2,31.34 29.76,48.85 9.14,21.19 11.93,35.17 13.53,54.22 0.17,2.11 0.27,4.22 0.27,6.32 0.01,9.08 -1.77,17.92 -6.53,25.77 -2.06,3.4 -4.36,6.5 -6.82,9.39 1.77,157.67 -62.07,315.92 -132.67,384.91 -0.81,0.79 -1.86,1.18 -2.91,1.18 -1.09,0 -2.18,-0.42 -3,-1.25 -1.61,-1.64 -1.58,-4.29 0.06,-5.9 68.07,-66.51 129.69,-217.74 130.23,-370.19 -11.84,11.46 -24.67,21.14 -30.21,37.84 -1.52,4.6 -2.13,9.32 -2.13,14.12 -0.03,17.72 8.11,36.45 8.08,53.78 -0.01,6.24 -1.07,12.29 -3.95,18.05 -6.63,13.24 -21.22,20.55 -35.53,24.33 -9.48,2.51 -19.28,3.88 -28.81,6.14 -13.52,26.11 -27.5,47.89 -40.51,64.71 -44.31,57.33 -62.06,99.84 -62.07,129.91 0,26.63 13.92,43.49 35.66,52.22 5.04,2.03 11.05,3.07 17.8,3.07 55.09,0 159.08,-69.41 185.4,-236.11 5.73,-36.26 7.8,-74.13 7.8,-110.05 -0.01,-95.9 -14.88,-177.842 -14.88,-177.842 l -58.57,-33.468"
         style="fill:#06ab91;fill-opacity:1;fill-rule:nonzero;stroke:none"
         id="path92" /><path
         d="m 1910.28,1040.49 -0.58,0.04 c -2.28,0.32 -3.89,2.42 -3.57,4.71 24.21,175.17 -46.23,367.08 -125.39,444.43 -1.64,1.61 -1.67,4.26 -0.06,5.9 1.62,1.64 4.26,1.68 5.91,0.07 80.59,-78.76 152.38,-273.8 127.81,-451.55 -0.28,-2.09 -2.08,-3.6 -4.12,-3.6"
         style="fill:#ffffff;fill-opacity:1;fill-rule:nonzero;stroke:none"
         id="path94" /><path
         d="m 1726.54,872.301 c -9.26,-5.313 -28.33,6.301 -35.64,11.199 -12.51,8.398 -22.64,20.281 -29.37,33.719 -7.84,15.64 -9.81,32.41 -7.36,49.711 1.27,8.98 3.79,17.73 6.29,26.441 2.46,8.549 4.91,17.099 7.37,25.659 2.43,8.43 4.88,17.16 3.76,25.88 -2.24,17.54 -17.82,29.83 -31.98,40.44 -15.66,11.72 -31.96,27.2 -31.87,48.32 0.07,16.31 8.51,31.45 18.61,44.24 10.1,12.79 22.09,24.09 31.22,37.6 6.57,9.72 11.7,21.14 10.63,32.82 -0.66,7.26 -3.68,14.1 -7.15,20.51 -7.46,13.76 -17.3,26.36 -22.45,41.13 -5.14,14.78 -4.41,33.16 7.13,43.73 9.46,8.69 23.53,9.9 36.34,9.05 11.86,-0.78 23.44,-6.13 33.81,-11.9 33.54,-18.65 52.69,-58.37 88.27,-72.72 13.73,-5.53 28.77,-6.75 43.08,-10.53 14.31,-3.78 28.9,-11.09 35.53,-24.33 13.06,-26.09 -11.18,-58.25 -2,-85.95 8.13,-24.51 31.94,-33.89 45.32,-55.98 5.85,-9.66 7.2,-20.83 6.26,-32.09 -1.6,-19.05 -4.39,-33.03 -13.53,-54.22 -7.56,-17.51 -29.76,-48.85 -29.76,-48.85 -0.56,-0.551 -161.1,-93.071 -162.51,-93.879"
         style="fill:#26b6a6;fill-opacity:1;fill-rule:nonzero;stroke:none"
         id="path96" /><path
         d="m 1720.73,870.941 c -9.91,0 -23.83,8.539 -29.83,12.559 -12.51,8.398 -22.64,20.281 -29.37,33.719 -5.76,11.492 -8.35,23.582 -8.35,36.051 0,4.511 0.34,9.058 0.99,13.66 1.27,8.98 3.79,17.73 6.29,26.441 2.46,8.549 4.91,17.099 7.37,25.659 2.01,6.98 4.04,14.17 4.04,21.38 0,1.5 -0.08,3 -0.28,4.5 -2.24,17.54 -17.82,29.83 -31.98,40.44 -15.63,11.7 -31.9,27.14 -31.87,48.2 0,0.04 0,0.08 0,0.12 0.07,16.31 8.51,31.45 18.61,44.24 10.1,12.79 22.09,24.09 31.22,37.6 5.98,8.84 10.76,19.1 10.77,29.68 0,1.05 -0.04,2.09 -0.14,3.14 -0.66,7.26 -3.68,14.1 -7.15,20.51 -7.46,13.76 -17.3,26.36 -22.45,41.13 -1.95,5.6 -3.05,11.72 -3.04,17.73 0.01,9.86 3,19.44 10.17,26 7.87,7.22 18.93,9.28 29.8,9.28 2.2,0 4.39,-0.09 6.54,-0.23 11.86,-0.78 23.44,-6.13 33.81,-11.9 33.54,-18.65 52.69,-58.37 88.27,-72.72 13.73,-5.53 28.77,-6.75 43.08,-10.53 14.31,-3.78 28.9,-11.09 35.53,-24.33 2.88,-5.76 3.94,-11.81 3.95,-18.05 0.03,-17.33 -8.11,-36.06 -8.08,-53.78 0,-4.8 0.61,-9.52 2.13,-14.12 8.13,-24.51 31.94,-33.89 45.32,-55.98 4.76,-7.85 6.54,-16.69 6.53,-25.77 0,-2.1 -0.1,-4.21 -0.27,-6.32 -1.6,-19.05 -4.39,-33.03 -13.53,-54.22 -7.56,-17.51 -29.76,-48.85 -29.76,-48.85 -0.56,-0.551 -161.1,-93.071 -162.51,-93.879 -1.66,-0.949 -3.64,-1.36 -5.81,-1.36"
         style="fill:#19b19d;fill-opacity:1;fill-rule:nonzero;stroke:none"
         id="path98" /><path
         d="m 1821.62,922.961 h -0.12 c -2.36,0.09 -4.15,2.039 -4.06,4.348 6.9,165.791 -71.22,348.841 -128.03,402.011 -1.68,1.58 -1.77,4.22 -0.19,5.91 1.58,1.68 4.22,1.76 5.91,0.2 57.94,-54.25 137.66,-240.33 130.66,-408.469 -0.09,-2.25 -1.94,-4 -4.17,-4"
         style="fill:#ffffff;fill-opacity:1;fill-rule:nonzero;stroke:none"
         id="path100" /><path
         d="m 1796.78,1118.84 -1.23,0.19 c -53.28,16.46 -119.67,19.37 -120.33,19.39 -2.31,0.1 -4.09,2.05 -4,4.35 0.1,2.3 1.84,4.12 4.34,4 0.68,-0.03 68.12,-2.97 122.45,-19.77 2.2,-0.67 3.44,-3.02 2.75,-5.22 -0.55,-1.79 -2.2,-2.94 -3.98,-2.94"
         style="fill:#ffffff;fill-opacity:1;fill-rule:nonzero;stroke:none"
         id="path102" /><path
         d="m 4076.5,3408.39 c -0.19,5.46 -3.83,10.88 -11.04,15.05 -14.79,8.54 -38.79,8.54 -53.59,0 -7.22,-4.17 -10.84,-9.59 -11.03,-15.05 h -0.07 V 1510.07 c 0,-11.85 16.95,-21.46 37.87,-21.46 20.9,0 37.86,9.61 37.86,21.46 h 0.06 v 1898.32 h -0.06"
         style="fill:#273e47;fill-opacity:1;fill-rule:nonzero;stroke:none"
         id="path104" /><path
         d="m 4076.5,3408.39 c 0,11.85 -16.96,21.46 -37.86,21.46 -20.92,0 -37.88,-9.61 -37.88,-21.46 0,-11.85 16.96,-21.45 37.88,-21.45 20.9,0 37.86,9.6 37.86,21.45"
         style="fill:#33535f;fill-opacity:1;fill-rule:nonzero;stroke:none"
         id="path106" /><path
         d="m 4466.89,2685.16 -74.33,128.74 -494.2,285.1 -37.4,-21.54 V 2905.8 l 494.21,-285.09 38.09,21.03 73.63,43.42"
         style="fill:#26b6a6;fill-opacity:1;fill-rule:nonzero;stroke:none"
         id="path108" /><path
         d="m 3860.97,3077.46 494.2,-285.1 74.32,-128.74 -74.32,-42.91 -494.2,285.09 v 171.66"
         style="fill:#26b6a6;fill-opacity:1;fill-rule:nonzero;stroke:none"
         id="path110" /><path
         d="m 4355.17,2620.71 74.32,42.91 0.22,-0.38 -74.54,-42.53"
         style="fill:#06ab91;fill-opacity:1;fill-rule:nonzero;stroke:none"
         id="path112" /><path
         d="m 4355.17,2620.71 -494.2,285.09 v 171.66 l 494.2,-285.1 74.32,-128.74 -74.32,-42.91"
         style="fill:#06ab91;fill-opacity:1;fill-rule:nonzero;stroke:none"
         id="path114" /><path
         d="m 4355.17,2792.36 v 0 l -494.2,285.1 37.39,21.54 494.2,-285.1 -37.39,-21.54"
         style="fill:#1db3a0;fill-opacity:1;fill-rule:nonzero;stroke:none"
         id="path116" /><path
         d="m 4429.71,2663.24 v 0 l -0.22,0.38 v 0 l -74.32,128.74 37.39,21.54 74.33,-128.74 -37.18,-21.92"
         style="fill:#14b099;fill-opacity:1;fill-rule:nonzero;stroke:none"
         id="path118" /><path
         d="m 4429.49,2663.62 -74.32,128.74 74.32,-128.74 v 0"
         style="fill:#14b099;fill-opacity:1;fill-rule:nonzero;stroke:none"
         id="path120" /><path
         d="m 4304.4,3122.48 -494.2,285.56 -74.33,-42.92 74.33,-128.74 494.2,-285.56 v 171.66"
         style="fill:#26b6a6;fill-opacity:1;fill-rule:nonzero;stroke:none"
         id="path122" /><path
         d="m 3810.2,3408.04 36.33,21.81 494.93,-285.98 -37.06,-21.39 -494.2,285.56"
         style="fill:#26b6a6;fill-opacity:1;fill-rule:nonzero;stroke:none"
         id="path124" /><path
         d="m 4304.4,3122.48 v 0 l -494.2,285.56 36.33,21.81 494.93,-285.98 -37.06,-21.39"
         style="fill:#5cc8bc;fill-opacity:1;fill-rule:nonzero;stroke:none"
         id="path126" /><path
         d="m 4341.46,2972.22 -37.06,-21.4 v 171.66 l 37.06,21.39 v -171.65"
         style="fill:#26b6a6;fill-opacity:1;fill-rule:nonzero;stroke:none"
         id="path128" /><path
         d="m 4304.4,2950.82 v 171.66 l 37.06,21.39 v -171.65 l -37.06,-21.4"
         style="fill:#1db3a0;fill-opacity:1;fill-rule:nonzero;stroke:none"
         id="path130" /><path
         d="m 4179.53,2592.08 -494.19,285.55 -74.33,-42.91 74.33,-128.74 494.19,-285.55 v 171.65"
         style="fill:#26b6a6;fill-opacity:1;fill-rule:nonzero;stroke:none"
         id="path132" /><path
         d="m 3685.34,2877.63 36.32,21.82 494.93,-285.98 -37.06,-21.39 -494.19,285.55"
         style="fill:#26b6a6;fill-opacity:1;fill-rule:nonzero;stroke:none"
         id="path134" /><path
         d="m 4179.53,2592.08 v 0 l -494.19,285.55 36.32,21.82 494.93,-285.98 -37.06,-21.39"
         style="fill:#5cc8bc;fill-opacity:1;fill-rule:nonzero;stroke:none"
         id="path136" /><path
         d="m 4216.59,2441.82 -37.06,-21.39 v 171.65 l 37.06,21.39 v -171.65"
         style="fill:#26b6a6;fill-opacity:1;fill-rule:nonzero;stroke:none"
         id="path138" /><path
         d="m 4179.53,2420.43 v 171.65 l 37.06,21.39 v -171.65 l -37.06,-21.39"
         style="fill:#1db3a0;fill-opacity:1;fill-rule:nonzero;stroke:none"
         id="path140" /><path
         d="m 2930.98,3569.42 c 3.96,1.31 7.88,0.99 11.72,-0.95 3.86,-1.93 6.43,-4.89 7.74,-8.87 l 15.76,-47.72 c 1.32,-4 1.01,-7.91 -0.93,-11.75 -1.94,-3.85 -4.88,-6.42 -8.86,-7.74 l -46.64,-15.4 c -4,-1.31 -7.9,-1.01 -11.76,0.94 -3.85,1.93 -6.42,4.88 -7.74,8.87 l -15.76,47.74 c -1.3,3.96 -1,7.88 0.93,11.73 1.96,3.84 4.9,6.43 8.89,7.75 z m -123.43,300.92 c 17,5.62 34.33,8.72 51.96,9.33 17.64,0.61 34.23,-1.62 49.75,-6.73 15.52,-5.1 29.32,-13.17 41.39,-24.24 12.07,-11.05 21.03,-25.44 26.88,-43.15 4.78,-14.47 6.67,-27.78 5.68,-39.94 -1.02,-12.16 -3.64,-23.65 -7.87,-34.47 -4.25,-10.82 -9.38,-21.15 -15.36,-30.94 -5.99,-9.8 -11.66,-19.09 -16.97,-27.85 -5.33,-8.78 -9.67,-17.54 -12.99,-26.25 -3.34,-8.73 -4.23,-17.25 -2.69,-25.56 0.58,-4.22 0.09,-8.19 -1.49,-11.9 -1.57,-3.75 -4.35,-6.26 -8.32,-7.57 l -41.24,-13.61 c -3.97,-1.32 -7.98,-1.05 -12,0.84 -4.02,1.88 -6.51,4.86 -7.46,8.96 -3.94,14.34 -5.05,27.71 -3.33,40.11 1.73,12.39 4.88,24.07 9.49,35.02 4.61,10.94 10.04,21.25 16.27,30.93 6.21,9.68 11.91,18.87 17.05,27.59 5.14,8.71 9.02,17.01 11.63,24.88 2.62,7.89 2.67,15.63 0.16,23.23 -4.54,13.73 -14.05,23.12 -28.56,28.16 -14.49,5.04 -31.32,4.39 -50.49,-1.93 -30.74,-10.14 -48.27,-32.98 -52.57,-68.49 -0.49,-4.58 -1.42,-8.19 -2.74,-10.83 -1.33,-2.65 -4.36,-4.75 -9.06,-6.3 l -43.92,-14.5 c -3.26,-1.08 -6.43,-0.92 -9.49,0.48 -3.06,1.39 -5.19,3.89 -6.39,7.52 -3.82,12.76 -4.19,26.98 -1.15,42.62 3.05,15.64 9.08,30.86 18.01,45.65 8.97,14.78 20.71,28.4 35.27,40.82 14.55,12.42 31.38,21.8 50.55,28.12"
         style="fill:#26b6a6;fill-opacity:1;fill-rule:nonzero;stroke:none"
         id="path142" /><path
         d="m 3256.05,3237.36 c 2.56,1.34 5.26,1.57 8.1,0.69 2.84,-0.89 4.93,-2.61 6.27,-5.16 l 16.15,-30.73 c 1.33,-2.56 1.57,-5.26 0.68,-8.1 -0.88,-2.85 -2.61,-4.93 -5.17,-6.27 l -30.02,-15.77 c -2.56,-1.35 -5.25,-1.59 -8.09,-0.7 -2.85,0.89 -4.93,2.61 -6.28,5.16 l -16.14,30.73 c -1.33,2.56 -1.58,5.25 -0.69,8.11 0.88,2.83 2.61,4.93 5.16,6.27 l 30.03,15.77 m -118.1,190.95 c 10.93,5.74 22.38,9.83 34.33,12.24 11.93,2.41 23.48,2.77 34.63,1.06 11.15,-1.73 21.45,-5.66 30.91,-11.83 9.5,-6.16 17.22,-14.96 23.21,-26.34 4.88,-9.31 7.68,-18.18 8.38,-26.57 0.69,-8.39 0.21,-16.51 -1.46,-24.37 -1.67,-7.84 -3.98,-15.45 -6.95,-22.8 -2.97,-7.35 -5.77,-14.31 -8.4,-20.89 -2.64,-6.58 -4.59,-13.04 -5.88,-19.35 -1.29,-6.31 -0.93,-12.21 1.07,-17.69 0.87,-2.82 0.97,-5.57 0.33,-8.29 -0.66,-2.71 -2.27,-4.75 -4.82,-6.09 l -26.53,-13.93 c -2.57,-1.36 -5.32,-1.62 -8.28,-0.79 -2.95,0.82 -4.98,2.57 -6.09,5.26 -4.3,9.32 -6.58,18.29 -6.8,26.94 -0.24,8.63 0.59,16.94 2.5,24.91 1.89,7.97 4.42,15.61 7.57,22.91 3.15,7.28 5.97,14.2 8.49,20.73 2.52,6.5 4.21,12.59 5.11,18.25 0.88,5.67 0.05,10.94 -2.52,15.84 -4.64,8.83 -12.19,14.15 -22.64,15.95 -10.45,1.78 -21.83,-0.56 -34.17,-7.03 -19.78,-10.4 -29.13,-27.93 -28.05,-52.61 0.18,-3.16 -0.03,-5.72 -0.65,-7.68 -0.59,-1.95 -2.42,-3.73 -5.44,-5.31 l -28.27,-14.85 c -2.1,-1.1 -4.27,-1.35 -6.52,-0.75 -2.25,0.6 -3.98,2.07 -5.2,4.4 -4.05,8.25 -5.91,17.89 -5.59,28.9 0.29,11 2.66,22.04 7.09,33.12 4.42,11.09 10.89,21.67 19.38,31.78 8.51,10.11 18.93,18.4 31.26,24.88"
         style="fill:#26b6a6;fill-opacity:1;fill-rule:nonzero;stroke:none"
         id="path144" /><path
         d="m 3247.27,3170.8 c -1.08,0 -2.18,0.17 -3.3,0.52 -2.85,0.89 -4.93,2.61 -6.28,5.16 l -16.14,30.73 c -0.8,1.54 -1.21,3.13 -1.21,4.77 -0.01,1.09 0.17,2.2 0.52,3.34 0.88,2.83 2.61,4.93 5.16,6.27 l 30.03,15.77 c 1.54,0.81 3.14,1.21 4.8,1.21 1.08,0 2.18,-0.17 3.3,-0.52 2.84,-0.89 4.93,-2.61 6.27,-5.16 l 16.15,-30.73 c 0.8,-1.54 1.21,-3.13 1.21,-4.77 0,-1.09 -0.18,-2.2 -0.53,-3.33 -0.88,-2.85 -2.61,-4.93 -5.17,-6.27 l -30.02,-15.77 c -1.54,-0.81 -3.14,-1.22 -4.79,-1.22"
         style="fill:#14b099;fill-opacity:1;fill-rule:nonzero;stroke:none"
         id="path146" /><path
         d="m 3211.77,3242.2 c -1.06,0 -2.16,0.16 -3.28,0.47 -2.95,0.82 -4.98,2.57 -6.09,5.26 -4.3,9.32 -6.58,18.29 -6.8,26.94 -0.03,0.94 -0.04,1.88 -0.04,2.82 0,7.62 0.84,14.99 2.54,22.09 1.89,7.97 4.42,15.61 7.57,22.91 3.15,7.28 5.97,14.2 8.49,20.73 2.52,6.5 4.21,12.59 5.11,18.25 0.23,1.46 0.34,2.9 0.34,4.31 0,4.05 -0.95,7.89 -2.86,11.53 -4.64,8.83 -12.19,14.15 -22.64,15.95 -2.26,0.38 -4.56,0.58 -6.91,0.58 -8.51,0 -17.59,-2.54 -27.26,-7.61 -18.78,-9.87 -28.15,-26.17 -28.14,-48.91 0.01,-1.21 0.03,-2.45 0.09,-3.7 0.04,-0.74 0.06,-1.44 0.06,-2.12 0,-2.2 -0.24,-4.06 -0.71,-5.56 -0.59,-1.95 -2.42,-3.73 -5.44,-5.31 l -28.27,-14.85 c -1.36,-0.71 -2.74,-1.07 -4.16,-1.07 -0.78,0 -1.56,0.11 -2.36,0.32 -2.25,0.6 -3.98,2.07 -5.2,4.4 -3.76,7.67 -5.64,16.55 -5.63,26.6 0,0.76 0.02,1.52 0.04,2.3 0.29,11 2.66,22.04 7.09,33.12 4.42,11.09 10.89,21.67 19.38,31.78 8.51,10.11 18.93,18.4 31.26,24.88 10.93,5.74 22.38,9.83 34.33,12.24 6.99,1.41 13.85,2.12 20.57,2.12 4.75,0 9.44,-0.35 14.06,-1.06 11.15,-1.73 21.45,-5.66 30.91,-11.83 9.5,-6.16 17.22,-14.96 23.21,-26.34 4.88,-9.31 7.68,-18.18 8.38,-26.57 0.2,-2.49 0.31,-4.96 0.3,-7.4 0,-5.79 -0.58,-11.45 -1.76,-16.97 -1.67,-7.84 -3.98,-15.45 -6.95,-22.8 -2.97,-7.35 -5.77,-14.31 -8.4,-20.89 -2.64,-6.58 -4.59,-13.04 -5.88,-19.35 -0.5,-2.46 -0.75,-4.87 -0.76,-7.21 0,-3.64 0.61,-7.14 1.83,-10.48 0.5,-1.63 0.75,-3.23 0.74,-4.83 0,-1.16 -0.14,-2.31 -0.41,-3.46 -0.66,-2.71 -2.27,-4.75 -4.82,-6.09 l -26.53,-13.93 c -1.59,-0.84 -3.26,-1.26 -5,-1.26"
         style="fill:#14b099;fill-opacity:1;fill-rule:nonzero;stroke:none"
         id="path148" /><path
         d="m 3420.63,3825.86 c 13.99,-4.27 27.04,-10.37 39.1,-18.29 12.07,-7.92 22.11,-17.25 30.05,-27.98 7.96,-10.74 13.36,-22.64 16.2,-35.72 2.85,-13.09 2.05,-26.93 -2.41,-41.53 -3.64,-11.92 -8.66,-21.7 -15.06,-29.34 -6.41,-7.66 -13.59,-14.1 -21.53,-19.32 -7.95,-5.23 -16.24,-9.7 -24.86,-13.43 -8.64,-3.71 -16.81,-7.25 -24.5,-10.59 -7.7,-3.35 -14.73,-7.15 -21.05,-11.4 -6.36,-4.25 -10.97,-9.53 -13.87,-15.8 -1.6,-3.1 -3.8,-5.51 -6.61,-7.26 -2.82,-1.75 -5.86,-2.12 -9.13,-1.11 l -33.97,10.37 c -3.28,0.99 -5.82,3.07 -7.63,6.23 -1.79,3.15 -2.06,6.31 -0.76,9.51 4.16,11.44 9.72,20.89 16.73,28.36 7,7.46 14.62,13.77 22.87,18.91 8.23,5.14 16.72,9.47 25.46,12.99 8.72,3.52 16.87,6.99 24.42,10.38 7.54,3.39 14.04,7.1 19.52,11.14 5.46,4.02 9.16,9.16 11.06,15.43 3.46,11.31 1.53,22.07 -5.77,32.29 -7.3,10.2 -18.85,17.72 -34.63,22.54 -25.33,7.73 -47.82,0.75 -67.47,-20.93 -2.49,-2.83 -4.81,-4.81 -6.93,-5.94 -2.15,-1.14 -5.15,-1.12 -9.02,0.06 l -36.2,11.06 c -2.68,0.81 -4.72,2.41 -6.11,4.79 -1.39,2.38 -1.62,5.06 -0.72,8.03 3.47,10.34 9.93,20.02 19.36,29.03 9.43,9.01 20.62,16.34 33.58,21.98 12.96,5.65 27.23,9.2 42.81,10.63 15.58,1.43 31.27,-0.27 47.07,-5.09 M 3361,3566.59 c 3.27,-1 5.74,-3.06 7.4,-6.17 1.65,-3.11 1.98,-6.31 0.99,-9.58 l -12.01,-39.32 c -1.01,-3.29 -3.06,-5.75 -6.18,-7.39 -3.1,-1.67 -6.3,-1.99 -9.58,-1 l -38.42,11.74 c -3.28,1 -5.74,3.05 -7.4,6.16 -1.67,3.12 -1.99,6.31 -0.97,9.59 l 12,39.33 c 1,3.27 3.04,5.73 6.17,7.39 3.1,1.65 6.28,1.98 9.57,0.98 l 38.43,-11.73"
         style="fill:#26b6a6;fill-opacity:1;fill-rule:nonzero;stroke:none"
         id="path150" /><path
         d="m 3345.29,3502.57 c -1.21,0 -2.43,0.19 -3.67,0.56 l -38.42,11.74 c -3.28,1 -5.74,3.05 -7.4,6.16 -1.03,1.92 -1.54,3.88 -1.55,5.86 0,1.23 0.19,2.47 0.58,3.73 l 12,39.33 c 1,3.27 3.04,5.73 6.17,7.39 1.93,1.03 3.89,1.55 5.89,1.55 1.22,0 2.44,-0.19 3.68,-0.57 l 38.43,-11.73 c 3.27,-1 5.74,-3.06 7.4,-6.17 1.03,-1.94 1.55,-3.92 1.55,-5.93 0,-1.21 -0.19,-2.42 -0.56,-3.65 l -12.01,-39.32 c -1.01,-3.29 -3.06,-5.75 -6.18,-7.39 -1.93,-1.04 -3.9,-1.56 -5.91,-1.56"
         style="fill:#87d6cb;fill-opacity:1;fill-rule:nonzero;stroke:none"
         id="path152" /><path
         d="m 3370.45,3593.54 c -1.13,0 -2.3,0.18 -3.49,0.55 l -33.97,10.37 c -3.28,0.99 -5.82,3.07 -7.63,6.23 -1.05,1.85 -1.57,3.7 -1.57,5.56 0,1.31 0.27,2.63 0.81,3.95 4.16,11.44 9.72,20.89 16.73,28.36 7,7.46 14.62,13.77 22.87,18.91 8.23,5.14 16.72,9.47 25.46,12.99 8.72,3.52 16.87,6.99 24.42,10.38 7.54,3.39 14.04,7.1 19.52,11.14 5.46,4.02 9.16,9.16 11.06,15.43 1.11,3.62 1.66,7.19 1.67,10.7 0,7.45 -2.48,14.64 -7.44,21.59 -7.3,10.2 -18.85,17.72 -34.63,22.54 -6.66,2.03 -13.12,3.05 -19.38,3.05 -17.58,0 -33.6,-7.99 -48.09,-23.98 -2.49,-2.83 -4.81,-4.81 -6.93,-5.94 -1.06,-0.56 -2.32,-0.84 -3.78,-0.84 -1.53,0 -3.27,0.3 -5.24,0.9 l -36.2,11.06 c -2.68,0.81 -4.72,2.41 -6.11,4.79 -0.84,1.43 -1.25,2.97 -1.26,4.62 0,1.09 0.18,2.23 0.54,3.41 3.47,10.34 9.93,20.02 19.36,29.03 9.43,9.01 20.62,16.34 33.58,21.98 12.96,5.65 27.23,9.2 42.81,10.63 3.57,0.32 7.14,0.49 10.72,0.49 12.06,0 24.17,-1.86 36.35,-5.58 13.99,-4.27 27.04,-10.37 39.1,-18.29 12.07,-7.92 22.11,-17.25 30.05,-27.98 7.96,-10.74 13.36,-22.64 16.2,-35.72 1.11,-5.11 1.67,-10.34 1.67,-15.68 0,-8.34 -1.36,-16.95 -4.08,-25.85 -3.64,-11.92 -8.66,-21.7 -15.06,-29.34 -6.41,-7.66 -13.59,-14.1 -21.53,-19.32 -7.95,-5.23 -16.24,-9.7 -24.86,-13.43 -8.64,-3.71 -16.81,-7.25 -24.5,-10.59 -7.7,-3.35 -14.73,-7.15 -21.05,-11.4 -6.36,-4.25 -10.97,-9.53 -13.87,-15.8 -1.6,-3.1 -3.8,-5.51 -6.61,-7.26 -1.79,-1.11 -3.67,-1.66 -5.64,-1.66"
         style="fill:#87d6cb;fill-opacity:1;fill-rule:nonzero;stroke:none"
         id="path154" /><path
         d="m 2817.97,1183.04 c 1.07,-18.01 3.03,-34.23 -4.34,-53.87 -10.59,-28.19 -32.04,-40.76 -44.7,-51.71 -12.66,-10.95 -26.84,-27.23 -37.12,-43.19 -9.13,-14.2 -19.5,-30.49 -38.76,-46.52 -12.02,-10 -45.29,-10.25 -61.19,-3.191 -15.91,7.062 -21.16,13.211 -19.66,38.811 1.47,25 79.32,32.76 79.32,32.76 l 126.45,126.91"
         style="fill:#33535f;fill-opacity:1;fill-rule:nonzero;stroke:none"
         id="path156" /><path
         d="m 2623.77,1099.54 c -6.67,-2.37 -8.59,-14.96 -10.1,-40.03 -1.15,-18.97 -9.68,-46.59 16.23,-59.08 20.89,-10.078 54.74,-4.34 69.35,13.27 18.23,21.98 30.66,41.39 56.58,68.13 22.49,23.2 45.58,30.71 56.31,77.76 6.9,30.24 2.2,42.92 -18.07,52.04 -27.86,12.54 -72.8,-25.71 -94.94,-31.43 -19.07,-4.92 -68.68,-78.28 -75.36,-80.66"
         style="fill:#26b6a6;fill-opacity:1;fill-rule:nonzero;stroke:none"
         id="path158" /><path
         d="m 2653.84,995.48 c -8.62,0 -17,1.602 -23.94,4.95 -15.08,7.27 -18.5,19.66 -18.49,32.5 0.01,9.21 1.78,18.65 2.26,26.58 1.51,25.07 3.43,37.66 10.1,40.03 2.43,0.86 10.49,11.05 20.7,23.94 8.24,-2.66 18.47,-4.81 30,-4.81 10.53,0 22.15,1.8 34.31,6.65 0,0 3.36,24.95 8.41,62.79 19.3,10.26 44.14,26.03 64.35,26.03 4.44,0 8.65,-0.76 12.53,-2.51 14.53,-6.53 21.06,-14.9 21.05,-30.25 0,-6.07 -1.03,-13.23 -2.98,-21.79 -10.73,-47.05 -33.82,-54.56 -56.31,-77.76 -25.92,-26.74 -38.35,-46.15 -56.58,-68.13 -9.75,-11.76 -28.08,-18.22 -45.41,-18.22"
         style="fill:#14b099;fill-opacity:1;fill-rule:nonzero;stroke:none"
         id="path160" /><path
         d="m 2699.13,1180.2 c 1.19,0.31 2.46,0.75 3.76,1.23 40.49,-4.34 56.15,-32.6 60.05,-41.13 3.59,-8.34 -8.09,-14.55 -14.84,-7.97 -15.07,31.52 -47.19,39.08 -60,40.88 4.23,3.62 8.04,6.22 11.03,6.99"
         style="fill:#fafaf9;fill-opacity:1;fill-rule:nonzero;stroke:none"
         id="path162" /><path
         d="m 2680.67,1166.27 c 37.37,-5.78 51.97,-32.48 55.74,-40.7 3.57,-8.35 -8.11,-14.55 -14.84,-7.97 -11.96,24.99 -34.67,34.93 -49.96,38.87 3.1,3.5 6.15,6.83 9.06,9.8"
         style="fill:#fafaf9;fill-opacity:1;fill-rule:nonzero;stroke:none"
         id="path164" /><path
         d="m 3163.39,787.809 c 3.87,-21.348 -4.05,-32.289 -31.81,-47.579 -27.75,-15.289 -70.93,-19.859 -115.97,-5.769 -45.04,14.078 -66.29,34.289 -85.03,39.379 -18.73,5.082 -65.3,6.422 -83.8,12.238 -18.5,5.82 -18.02,15.363 -17.47,37.723 l 334.08,-35.992"
         style="fill:#33535f;fill-opacity:1;fill-rule:nonzero;stroke:none"
         id="path166" /><path
         d="m 2849.69,931.262 c 0,0 -9.37,-26.614 -14.61,-49.942 -4.15,-18.539 -10.2,-49.558 -3.96,-63.699 6.25,-14.141 31.5,-23.691 70.93,-24.172 25.55,-0.328 65.01,-18.469 91.96,-34.219 27.83,-16.281 58.37,-16.941 88.21,-14.039 35.18,3.411 71.93,23.028 77.89,37.438 5.97,14.422 7.66,25.293 -74.33,62.191 -0.75,0.34 -95.24,37.371 -134.36,82.321 l -101.73,4.121"
         style="fill:#26b6a6;fill-opacity:1;fill-rule:nonzero;stroke:none"
         id="path168" /><path
         d="m 3057.32,743.852 c -21.66,0.007 -43.19,3.609 -63.31,15.378 -26.95,15.75 -66.41,33.891 -91.96,34.219 -39.43,0.481 -64.68,10.031 -70.93,24.172 -1.93,4.359 -2.68,10.328 -2.69,17.051 0,15.047 3.78,33.828 6.65,46.648 5.24,23.328 14.61,49.942 14.61,49.942 l 101.73,-4.121 c 39.12,-44.95 133.61,-81.981 134.36,-82.321 63.49,-28.57 76.8,-41.539 76.8,-52.629 0.01,-3.23 -1.12,-6.3 -2.47,-9.562 -5.96,-14.41 -42.71,-34.027 -77.89,-37.438 -8.27,-0.812 -16.59,-1.339 -24.9,-1.339"
         style="fill:#14b099;fill-opacity:1;fill-rule:nonzero;stroke:none"
         id="path170" /><path
         d="m 3005.18,753.578 c 0,0 8.51,70.863 66.64,90.012 52.53,17.301 97.31,-22.27 91.57,-55.781 -3.87,-22.528 -68.41,-72.598 -158.21,-34.231"
         style="fill:#fafaf9;fill-opacity:1;fill-rule:nonzero;stroke:none"
         id="path172" /><path
         d="m 3057.47,857.172 c 0,0 -18.59,0.379 -39.73,-16.703 -16.93,-13.668 -17.6,-22.969 -17.6,-22.969 -3.92,-5.75 -16.07,-2.309 -14.9,7.512 0,0 4.59,35.726 51.86,42.117 0,0 13.03,2.973 20.37,-9.957"
         style="fill:#fafaf9;fill-opacity:1;fill-rule:nonzero;stroke:none"
         id="path174" /><path
         d="m 3024.79,873.641 c 0,0 -18.95,2.07 -40.09,-15.012 -16.92,-13.668 -17.25,-24.66 -17.25,-24.66 -3.91,-5.75 -16.07,-2.309 -14.9,7.5 0,0 4.59,35.73 51.87,42.121 0,0 13.02,2.969 20.37,-9.949"
         style="fill:#fafaf9;fill-opacity:1;fill-rule:nonzero;stroke:none"
         id="path176" /><path
         d="m 2992.42,892.988 c 0,0 -18.76,3.364 -41.02,-12.238 -17.82,-12.48 -18.89,-23.422 -18.89,-23.422 -4.3,-5.469 -16.2,-1.207 -14.36,8.504 0,0 7.02,35.328 54.62,38.477 0,0 13.2,2.07 19.65,-11.321"
         style="fill:#fafaf9;fill-opacity:1;fill-rule:nonzero;stroke:none"
         id="path178" /><path
         d="m 2624.59,1140.13 -0.96,-48.16 c 0,0 31.53,-25.26 77.79,-3.67 1.41,2.94 6.26,50.16 6.26,50.16 l -83.09,1.67"
         style="fill:#f6879f;fill-opacity:1;fill-rule:nonzero;stroke:none"
         id="path180" /><path
         d="m 2850.36,964.559 c 0,0 -0.35,-22.86 -0.72,-35.918 -0.38,-13.059 14.66,-32.84 54.62,-32.211 28.08,0.441 47.8,7.59 47.16,30.711 l 0.66,33.3 -101.72,4.118"
         style="fill:#f6879f;fill-opacity:1;fill-rule:nonzero;stroke:none"
         id="path182" /><path
         d="m 2580.84,1549.88 c 4.64,101.54 26.43,145.7 26.43,145.7 0,0 -5.26,125.63 -19.06,279.61 -21.01,234.41 -2.44,269.14 45.82,373.45 0,0 388.67,42.36 397.4,-121.49 10.87,-204.07 4.33,-618.57 -2.52,-690.44 -6.85,-71.87 -5.44,-5.36 -25.85,-150.72 -16.14,-114.97 -50.98,-425.549 -50.98,-425.549 -52.81,-27.203 -101.72,4.118 -101.72,4.118 0,0 -24.55,381.401 -19.51,464.391 6.16,101.33 12.43,127.03 12.43,127.03 0,0 -39.45,329.23 -45.51,382.24 0,0 -8.3,-94.47 -15.16,-166.35 -6.86,-71.87 -7.57,-129.86 -25.71,-278.45 -14.24,-116.54 -48.12,-368.1 -48.12,-368.1 -46.94,-18.72 -85.73,8.04 -85.73,8.04 0,0 -45.96,334.37 -42.21,416.52"
         style="fill:#33535f;fill-opacity:1;fill-rule:nonzero;stroke:none"
         id="path184" /><path
         d="m 2798.54,1124.88 c 0,0 -1.09,56.28 -76.94,65.62 l -4.4,-2.38 c 0,0 12.55,21.81 37.97,28.12 25.41,6.31 45.23,-0.62 58.15,-17.99 12.92,-17.35 -1.43,-62.67 -14.78,-73.37"
         style="fill:#fafaf9;fill-opacity:1;fill-rule:nonzero;stroke:none"
         id="path186" /><path
         d="m 2797.77,1938.22 -4.94,67.28 c 0,0 -58.6,19.19 -120.11,60.3 0,0 26.91,-53.32 96.74,-73.39 l 12.12,-66.02 1.03,-154.52 15.16,166.35"
         style="fill:#273e47;fill-opacity:1;fill-rule:nonzero;stroke:none"
         id="path188" /><path
         d="m 2658.16,3258.83 c -21.22,-26.56 -178.77,-280.2 -201.79,-327.71 -23.02,-47.51 -28.55,-78.27 7.85,-116.67 54.71,-57.71 192.57,-196.88 192.57,-196.88 l 77.2,184.22 -143.19,89.86 140.21,296.31 -72.85,70.87"
         style="fill:#f6879f;fill-opacity:1;fill-rule:nonzero;stroke:none"
         id="path190" /><path
         d="m 2590.8,2891.65 c 0,0 -39.19,13.77 -71.87,-7.44 0,0 25.8,36.44 79.12,22.77 l -7.25,-15.33"
         style="fill:#f47089;fill-opacity:1;fill-rule:nonzero;stroke:none"
         id="path192" /><path
         d="m 2737.74,2816.23 -126.92,62.86 c -46.71,6.69 -107.56,-66.38 -105.78,-122.35 l 111.03,-97.96 121.67,157.45"
         style="fill:#33535f;fill-opacity:1;fill-rule:nonzero;stroke:none"
         id="path194" /><path
         d="m 2756.12,2910.1 -7.97,-88.06 c -19.83,-6.19 -16.37,-34.1 -4.65,-51.31 l -2.34,-25.92 129.58,-11.7 19.44,148.79 -134.06,28.2"
         style="fill:#f6879f;fill-opacity:1;fill-rule:nonzero;stroke:none"
         id="path196" /><path
         d="m 2613.47,2758.01 c 14.39,39.18 71.26,69.23 105.72,66.53 13.3,-1.05 28.96,-2.5 28.96,-2.5 -8.02,-16.04 3.56,-27.44 24.51,-33.47 27.06,-7.79 76.76,-12.26 106.05,5.11 l 0.91,7.42 c 0,0 55.27,-15.72 71.56,-21.85 45.78,-17.25 60.89,-26.06 108.36,-149.24 20.31,-52.68 7.78,-107.29 -46.88,-137.09 -4.06,-32.54 -8.68,-83.83 -8.68,-83.83 24.65,-113.01 33.11,-211.7 33.11,-211.7 0,0 -28.82,-65.38 -228.3,-54.38 -154.49,8.52 -226.39,86.69 -226.39,86.69 3.79,37.93 27.78,98.48 76.96,212.69 -58.15,164.17 -67.25,257.49 -45.89,315.62"
         style="fill:#273e47;fill-opacity:1;fill-rule:nonzero;stroke:none"
         id="path198" /><path
         d="m 3438.3,2839.25 -0.47,0.14 c -12.35,6.41 -19.39,19.5 -17.93,33.35 1.94,18.43 18.51,31.84 36.94,29.9 l 1.17,-1.45 -1.44,-1.18 c -16.99,1.79 -32.26,-10.56 -34.05,-27.55 -1.34,-12.75 5.15,-24.82 16.54,-30.73 l 0.55,-1.78 -1.31,-0.7"
         style="fill:#dadbd8;fill-opacity:1;fill-rule:nonzero;stroke:none"
         id="path200" /><path
         d="m 3417.91,2866.6 7.58,-9.38 c 2.67,-6.85 8.04,-13.49 14.18,-17.53 l 7.58,-9.37 5.6,4.53 -0.04,0.05 c 3.14,2.03 4.67,6.16 3.79,11.76 -1.64,10.4 -10.92,21.88 -20.74,25.66 -5.3,2.04 -9.66,1.4 -12.29,-1.24 l -0.05,0.05 -5.61,-4.53"
         style="fill:#33535f;fill-opacity:1;fill-rule:nonzero;stroke:none"
         id="path202" /><path
         d="m 3435.54,2829.64 c 9.82,-3.78 16.46,1.58 14.81,11.97 -1.63,10.39 -10.91,21.88 -20.74,25.66 -9.81,3.78 -16.44,-1.58 -14.81,-11.97 1.64,-10.39 10.93,-21.88 20.74,-25.66"
         style="fill:#17282f;fill-opacity:1;fill-rule:nonzero;stroke:none"
         id="path204" /><path
         d="m 3410.26,2851.84 20.94,-25.91 8.92,7.2 -0.03,0.04 c 2.24,1.45 3.34,4.4 2.71,8.4 -1.18,7.42 -7.81,15.62 -14.82,18.33 -3.78,1.45 -6.89,0.99 -8.78,-0.89 l -0.03,0.04 -8.91,-7.21"
         style="fill:#273e47;fill-opacity:1;fill-rule:nonzero;stroke:none"
         id="path206" /><path
         d="m 3217.67,2760.13 10.14,-32.07 0.03,-0.12 0.07,-0.24 h 0.01 c 5.11,-15.7 20.54,-28.12 45.15,-33.55 49.52,-10.94 117.42,10.52 151.65,47.94 17.01,18.59 22.5,37.62 17.66,53.41 h 0.01 l -0.08,0.24 -0.04,0.12 -10.14,32.07 -12.71,-6.4 c -6.31,3.44 -13.77,6.22 -22.38,8.12 -49.52,10.94 -117.42,-10.53 -151.65,-47.94 -5.9,-6.45 -10.39,-12.95 -13.56,-19.35 l -14.16,-2.23"
         style="fill:#26b6a6;fill-opacity:1;fill-rule:nonzero;stroke:none"
         id="path208" /><g
         id="g210"><g
           id="g212"
           clip-path="url(#clipPath216)"><path
             d="m 3217.8,2691.29 h 226.277 v 136.641 H 3217.8 Z"
             style="fill:#06ab91;fill-opacity:1;fill-rule:nonzero;stroke:none"
             id="path218" /></g></g><path
         d="m 3449.8,2835.8 c -4.21,0.44 -8.24,1.65 -11.96,3.59 l -0.57,1.77 1.79,0.57 c 3.42,-1.79 7.13,-2.89 11.01,-3.3 16.98,-1.79 32.26,10.57 34.04,27.54 1.79,16.99 -10.56,32.26 -27.54,34.04 l -1.18,1.45 1.45,1.18 c 18.43,-1.94 31.84,-18.51 29.9,-36.94 -1.94,-18.43 -18.51,-31.84 -36.94,-29.9"
         style="fill:#dadbd8;fill-opacity:1;fill-rule:nonzero;stroke:none"
         id="path220" /><path
         d="m 3386.79,2862.08 c -49.52,10.94 -117.42,-10.53 -151.65,-47.95 -34.24,-37.41 -21.85,-76.61 27.68,-87.55 49.52,-10.94 117.42,10.52 151.66,47.94 34.22,37.42 21.83,76.62 -27.69,87.56"
         style="fill:#26b6a6;fill-opacity:1;fill-rule:nonzero;stroke:none"
         id="path222" /><path
         d="m 3290.5,2723.72 c -9.61,0 -18.93,0.92 -27.68,2.86 -30.57,6.75 -46.99,24.27 -47.03,45.48 -0.03,13.16 6.24,27.75 19.35,42.07 28.18,30.81 79.18,50.8 123.96,50.8 9.61,0 18.94,-0.92 27.69,-2.85 30.56,-6.76 46.99,-24.27 47.03,-45.49 0.03,-13.16 -6.24,-27.75 -19.34,-42.07 -28.19,-30.81 -79.2,-50.8 -123.98,-50.8 m -52.86,48.69 c -0.01,-4.49 1.49,-8.93 5.39,-12.92 l 0.94,-0.91 c 5.23,-4.8 13.39,-8.52 23.53,-10.77 7.24,-1.6 15,-2.35 23.05,-2.35 38.66,0 83.87,17.5 107.87,43.75 4.4,4.81 11.79,14.1 13.29,23.72 0.17,1.11 0.27,2.22 0.27,3.33 0,4.82 -1.73,9.6 -6.33,13.81 -5.26,4.81 -13.39,8.52 -23.54,10.77 -7.23,1.59 -14.99,2.35 -23.04,2.35 -38.66,0 -83.88,-17.5 -107.89,-43.74 -4.9,-5.36 -13.52,-16.31 -13.54,-27.04"
         style="fill:#14b099;fill-opacity:1;fill-rule:nonzero;stroke:none"
         id="path224" /><path
         d="m 3251.18,2799.45 c 29.01,31.7 88.97,50.65 130.93,41.39 10.15,-2.25 18.28,-5.96 23.54,-10.77 5.66,-5.18 6.98,-11.22 6.06,-17.14 -1.5,-9.62 -8.89,-18.91 -13.29,-23.72 -28.99,-31.71 -88.94,-50.66 -130.92,-41.4 -10.14,2.25 -18.3,5.97 -23.53,10.77 l -0.94,0.91 c -13.23,13.51 1.2,32.36 8.15,39.96"
         style="fill:#26b6a6;fill-opacity:1;fill-rule:nonzero;stroke:none"
         id="path226" /><path
         d="m 3290.55,2745.46 c -8.05,0 -15.81,0.75 -23.05,2.35 -10.14,2.25 -18.3,5.97 -23.53,10.77 l -0.94,0.91 c -3.9,3.99 -5.4,8.43 -5.39,12.92 0.02,10.73 8.64,21.68 13.54,27.04 24.01,26.24 69.23,43.74 107.89,43.74 8.05,0 15.81,-0.76 23.04,-2.35 10.15,-2.25 18.28,-5.96 23.54,-10.77 4.6,-4.21 6.33,-8.99 6.33,-13.81 0,-1.11 -0.1,-2.22 -0.27,-3.33 -1.5,-9.62 -8.89,-18.91 -13.29,-23.72 -24,-26.25 -69.21,-43.75 -107.87,-43.75"
         style="fill:#0b7465;fill-opacity:1;fill-rule:nonzero;stroke:none"
         id="path228" /><path
         d="m 3256.3,2783.24 c 29.02,31.7 88.97,50.65 130.92,41.38 10.16,-2.24 18.3,-5.97 23.54,-10.77 l 0.95,-0.92 c -1.5,-9.62 -8.89,-18.91 -13.29,-23.72 -28.99,-31.71 -88.94,-50.66 -130.92,-41.4 -10.14,2.25 -18.3,5.97 -23.53,10.77 l -0.94,0.91 c 1.48,9.63 8.88,18.95 13.27,23.75"
         style="fill:#ededeb;fill-opacity:1;fill-rule:nonzero;stroke:none"
         id="path230" /><path
         d="m 3312.78,2786.11 -28.9,-21.59 c -2.28,-1.7 0.52,-3.37 3.54,-2.12 l 38.44,15.87 -13.08,7.84"
         style="fill:#33535f;fill-opacity:1;fill-rule:nonzero;stroke:none"
         id="path232" /><path
         d="m 3336.13,2783.98 28.89,21.59 c 2.28,1.7 -0.51,3.37 -3.54,2.12 l -38.44,-15.88 13.09,-7.83"
         style="fill:#33535f;fill-opacity:1;fill-rule:nonzero;stroke:none"
         id="path234" /><path
         d="m 3336.38,2777.9 c -8.95,-4.98 -21.54,-5.82 -28.13,-1.87 -6.6,3.94 -4.68,11.18 4.27,16.16 8.95,4.98 21.55,5.82 28.14,1.87 6.59,-3.95 4.68,-11.18 -4.28,-16.16"
         style="fill:#26b6a6;fill-opacity:1;fill-rule:nonzero;stroke:none"
         id="path236" /><path
         d="m 3332.15,2780.44 c -5.77,-3.22 -13.9,-3.76 -18.15,-1.21 -4.25,2.55 -3.02,7.21 2.75,10.43 5.77,3.2 13.91,3.75 18.16,1.2 4.24,-2.54 3.01,-7.21 -2.76,-10.42"
         style="fill:#273e47;fill-opacity:1;fill-rule:nonzero;stroke:none"
         id="path238" /><path
         d="m 3451.18,2805.53 c -10.79,15.38 -18.03,19.17 -18.03,19.17 l 8.35,-26.39 c 6.49,-19.45 -7.68,-45.07 -21.79,-59.59 -9.52,-9.8 -27.31,-21.48 -28.77,-17.83 -2.02,5.06 0.93,30.05 -4.19,52.51 -6.16,27.04 -22.2,13.9 -26.37,-6.4 -2.27,-11.09 -14.31,-39.31 -17.73,-60.81 -4.18,-26.3 1.3,-48.83 -6.62,-67.87 -6.18,-14.86 -70.45,-95.11 -107.41,-138.05 -38.4,51.2 -90.46,117.88 -135.12,175.13 -62.86,80.6 -75.82,97.51 -126.22,99.16 -39.97,-115.42 28.56,-231.66 28.56,-231.66 0,0 94.51,-114.88 153.43,-175.25 56.88,-58.28 76.86,-53.33 104.14,-30.09 27.28,23.24 97.67,127.49 127.8,185.36 30.25,58.07 62.09,101.72 79.96,132.4 30.11,51.67 21.18,105.79 -9.99,150.21"
         style="fill:#f6879f;fill-opacity:1;fill-rule:nonzero;stroke:none"
         id="path240" /><path
         d="m 2951.18,2779.25 c 0,0 47.23,6.71 79.08,-18.82 7.27,-5.83 31.86,-29.93 54.32,-59.96 44.1,-58.97 126.32,-168.66 126.32,-168.66 0,0 -33.62,-72.81 -128.61,-100.07 0,0 -80.75,84.47 -111.01,126.38 -53.56,74.2 -48.08,180 -20.1,221.13"
         style="fill:#33535f;fill-opacity:1;fill-rule:nonzero;stroke:none"
         id="path242" /><path
         d="m 2748.15,2822.04 c 0,0 -64.62,-28.63 -77.69,-70 l -60.65,7.63 c 0,0 25.82,47.34 77.13,62.37 32.7,9.58 61.21,0 61.21,0"
         style="fill:#26b6a6;fill-opacity:1;fill-rule:nonzero;stroke:none"
         id="path244" /><path
         d="m 2682.6,2774.01 c -10.23,2.15 -19.25,3.69 -26.57,4.52 -3.89,0.46 -7.3,0.72 -10.14,0.76 -0.16,0 -0.31,0 -0.47,0 -7.42,0 -16.27,-1.9 -25.77,-5.17 11.82,15.21 34.28,38.25 67.29,47.92 10.9,3.19 21.33,4.26 30.4,4.26 18.14,0 30.81,-4.26 30.81,-4.26 0,0 -42.52,-18.84 -65.55,-48.03"
         style="fill:#14b099;fill-opacity:1;fill-rule:nonzero;stroke:none"
         id="path246" /><path
         d="m 2888.36,2692.95 c 0,0 25.2,76.2 62.82,86.3 0,0 -25.17,17.74 -67.71,20.54 0,0 -35.93,-23.3 -57.92,-70.99 l 62.81,-35.85"
         style="fill:#26b6a6;fill-opacity:1;fill-rule:nonzero;stroke:none"
         id="path248" /><path
         d="m 2888.4,2693.06 c -4.36,3.22 -9.09,6.4 -14.12,9.51 v 0 c -7.19,4.45 -15.15,8.85 -23.68,13.16 -4.87,2.5 -9.89,4.95 -15.05,7.36 l -10,5.71 c 21.99,47.69 57.92,70.99 57.92,70.99 42.54,-2.8 67.71,-20.54 67.71,-20.54 -36.77,-9.87 -61.66,-82.87 -62.78,-86.19 m -14.22,9.44 v 0 l 0.1,0.07 -0.1,-0.07"
         style="fill:#14b099;fill-opacity:1;fill-rule:nonzero;stroke:none"
         id="path250" /><path
         d="m 2645.94,2779.25 c -36.07,0.46 -106.98,-45.06 -119.54,-73.17 -13.16,-29.51 -62.28,-399.07 -31.41,-436.23 38.73,-46.63 216.55,-152.16 299.7,-149.23 68.6,2.42 135.99,54.4 146.37,72.79 17.02,30.12 -5.97,440.4 -27.87,474.89 -35.49,55.89 -221.28,110.35 -267.25,110.95"
         style="fill:#26b6a6;fill-opacity:1;fill-rule:nonzero;stroke:none"
         id="path252" /><path
         d="m 2932.24,2182.66 c 4.13,4.13 7.12,7.78 8.75,10.63 -1.66,-2.91 -4.64,-6.55 -8.75,-10.63 m 8.76,10.65 c 0.01,0.01 0.02,0.03 0.02,0.04 0,-0.01 -0.01,-0.03 -0.02,-0.04 m 5.97,78.64 c -0.01,128.89 -17.21,370.25 -33.78,396.35 -5.28,8.31 -13.87,16.58 -24.83,24.65 0.01,0.01 0.02,0.04 0.04,0.11 10.83,-7.99 19.41,-16.29 24.79,-24.76 16.57,-26.1 33.77,-267.46 33.78,-396.35"
         style="fill:#1d2f36;fill-opacity:1;fill-rule:nonzero;stroke:none"
         id="path254" /><path
         d="m 2888.36,2692.95 c -4.37,3.22 -9.12,6.41 -14.18,9.55 l 0.1,0.07 v 0 c 5.03,-3.11 9.76,-6.29 14.12,-9.51 -0.02,-0.07 -0.03,-0.1 -0.04,-0.11"
         style="fill:#069c86;fill-opacity:1;fill-rule:nonzero;stroke:none"
         id="path256" /><path
         d="m 2835.9,2137.04 c -10.02,0 -20.54,1.61 -28.72,6.71 -1.49,0.93 -2.9,1.97 -4.21,3.14 -2.04,1.82 -3.85,5.15 -5.47,9.79 -0.01,0.03 -0.03,0.06 -0.04,0.1 0,0.01 0,0.01 0,0.02 -14.9,43.1 -12.84,198.34 -13.38,315.97 -0.54,99.72 10.7,155.07 31.98,184.89 6.59,9.21 14.13,15.98 22.59,20.86 l 35.53,23.98 c 5.06,-3.14 9.81,-6.33 14.18,-9.55 v 0 c 10.96,-8.07 19.55,-16.34 24.83,-24.65 16.57,-26.1 33.77,-267.46 33.78,-396.35 0,-27.61 -0.79,-50.06 -2.54,-64.13 -0.88,-7.03 -1.99,-11.97 -3.37,-14.41 v 0 c -0.01,-0.02 -0.02,-0.04 -0.04,-0.06 0,-0.01 -0.01,-0.03 -0.02,-0.04 0,0 0,-0.01 -0.01,-0.02 -1.63,-2.85 -4.62,-6.5 -8.75,-10.63 -1.47,-1.46 -3.08,-2.98 -4.83,-4.54 0.5,0.46 0.99,0.9 1.47,1.35 -6.84,-6.26 -15.95,-13.29 -26.77,-20.15 -9.91,-6.26 -21.26,-12.38 -33.59,-17.63 -0.25,-0.08 -0.9,-0.26 -1.89,-0.52 -4.7,-1.22 -17.26,-4.13 -30.73,-4.13"
         style="fill:#14b099;fill-opacity:1;fill-rule:nonzero;stroke:none"
         id="path258" /><path
         d="m 2791.26,2120.51 c -36.71,0 -90.26,19.53 -142.22,45.39 51.93,-25.84 105.46,-45.34 142.19,-45.34 1.17,0 2.32,0.02 3.46,0.06 17.6,0.62 35.11,4.5 51.6,10.24 -16.5,-5.76 -34.02,-9.65 -51.61,-10.29 -1.12,-0.04 -2.26,-0.06 -3.42,-0.06"
         style="fill:#2c4954;fill-opacity:1;fill-rule:nonzero;stroke:none"
         id="path260" /><path
         d="m 2499.51,2264.8 c -1.67,1.76 -3.19,3.45 -4.54,5.07 -4.03,4.86 -6.69,15.4 -8.25,30.13 1.56,-14.74 4.23,-25.29 8.27,-30.15 1.35,-1.62 2.85,-3.3 4.52,-5.05"
         style="fill:#cccdcb;fill-opacity:1;fill-rule:nonzero;stroke:none"
         id="path262" /><path
         d="m 2494.55,2494.5 c 10.07,99.46 25.32,197.02 31.84,211.59 1.32,2.93 3.26,6.05 5.74,9.29 -2.47,-3.25 -4.42,-6.37 -5.73,-9.3 -6.5,-14.58 -21.78,-112.11 -31.85,-211.58"
         style="fill:#e0e1de;fill-opacity:1;fill-rule:nonzero;stroke:none"
         id="path264" /><path
         d="m 2601.6,2766.68 c 6.13,2.91 12.21,5.43 18.05,7.44 -0.01,-0.01 -0.02,-0.02 -0.02,-0.02 -5.83,-2 -11.9,-4.52 -18.03,-7.42"
         style="fill:#2c4954;fill-opacity:1;fill-rule:nonzero;stroke:none"
         id="path266" /><path
         d="m 2619.63,2774.1 c 0,0 0.01,0.01 0.02,0.02 9.5,3.27 18.35,5.17 25.77,5.17 0.16,0 0.31,0 0.47,0 2.84,-0.04 6.25,-0.3 10.14,-0.76 -3.85,0.44 -7.24,0.68 -10.09,0.72 -0.18,0 -0.37,0 -0.55,0 -7.42,0 -16.27,-1.9 -25.76,-5.15"
         style="fill:#09ac93;fill-opacity:1;fill-rule:nonzero;stroke:none"
         id="path268" /><path
         d="m 2874.18,2702.5 c -7.27,4.51 -15.19,8.93 -23.58,13.23 8.53,-4.31 16.49,-8.71 23.68,-13.16 v 0 l -0.1,-0.07"
         style="fill:#09ac93;fill-opacity:1;fill-rule:nonzero;stroke:none"
         id="path270" /><path
         d="m 2791.23,2120.56 c -36.73,0 -90.26,19.5 -142.19,45.34 -63.37,31.53 -124.37,72.49 -149.53,98.9 -1.67,1.75 -3.17,3.43 -4.52,5.05 -4.04,4.86 -6.71,15.41 -8.27,30.15 -4.46,42.26 0.19,118.93 7.83,194.5 10.07,99.47 25.35,197 31.85,211.58 1.31,2.93 3.26,6.05 5.73,9.3 13.34,17.43 42,38.27 69.47,51.3 6.13,2.9 12.2,5.42 18.03,7.42 v 0 c 9.49,3.25 18.34,5.15 25.76,5.15 0.18,0 0.37,0 0.55,0 2.85,-0.04 6.24,-0.28 10.09,-0.72 40.18,-4.78 132.33,-31.33 194.57,-62.8 8.39,-4.3 16.31,-8.72 23.58,-13.23 l -35.5,-23.93 c -8.47,-4.89 -16.03,-11.68 -22.62,-20.91 -21.29,-29.8 -32.51,-85.15 -32.03,-184.85 0.56,-117.67 -1.48,-272.94 13.43,-316.01 0,-0.01 0,-0.01 0,-0.02 0.01,-0.04 0.03,-0.07 0.04,-0.1 1.62,-4.66 3.44,-7.99 5.48,-9.81 1.31,-1.16 2.72,-2.2 4.2,-3.12 8.17,-5.11 18.7,-6.72 28.72,-6.72 13.45,-0.01 25.99,2.9 30.73,4.14 0.97,0.25 1.6,0.43 1.85,0.5 12.37,5.25 23.72,11.38 33.63,17.65 10.07,6.37 18.66,12.89 25.3,18.8 -16.99,-15.37 -46.86,-35.32 -81.12,-47.26 -16.49,-5.74 -34,-9.62 -51.6,-10.24 -1.14,-0.04 -2.29,-0.06 -3.46,-0.06"
         style="fill:#1db3a0;fill-opacity:1;fill-rule:nonzero;stroke:none"
         id="path272" /><path
         d="m 2835.9,2137.03 c -10.02,0 -20.55,1.61 -28.72,6.72 8.18,-5.1 18.7,-6.71 28.72,-6.71 13.47,0 26.03,2.91 30.73,4.13 -4.74,-1.24 -17.28,-4.15 -30.73,-4.14 m -38.4,19.65 c -0.01,0.03 -0.03,0.06 -0.04,0.1 0.01,-0.04 0.03,-0.07 0.04,-0.1 m -0.04,0.12 c -14.91,43.07 -12.87,198.34 -13.43,316.01 -0.48,99.7 10.74,155.05 32.03,184.85 -21.28,-29.82 -32.52,-85.17 -31.98,-184.89 0.54,-117.63 -1.52,-272.87 13.38,-315.97 m 104.65,2.52 c 10.82,6.86 19.93,13.89 26.77,20.15 -0.48,-0.45 -0.97,-0.89 -1.47,-1.35 -6.64,-5.91 -15.23,-12.43 -25.3,-18.8"
         style="fill:#09ac93;fill-opacity:1;fill-rule:nonzero;stroke:none"
         id="path274" /><path
         d="m 2642.21,2779.25 c -39.61,0 -99.42,-32.18 -119.53,-63.38 -20.1,-31.2 -34.43,-121.97 -19.69,-148.65 14.52,-26.26 112.96,-79.71 179.89,-107.02 53.5,-21.83 81.48,-16.16 100.41,-2.66 12.05,8.59 14.15,34.21 15.05,53.2 2.33,48.83 -1.68,74.95 27.78,103.61 29.45,28.66 81.89,52.82 90.8,31.21 0,0 11.86,32.52 -49.01,63.89 -100.9,51.99 -176.95,69.79 -225.7,69.8"
         style="fill:#26b6a6;fill-opacity:1;fill-rule:nonzero;stroke:none"
         id="path276" /><path
         d="m 2698.95,2522.24 35.32,-13.43 c 0,0 -4.63,-107.7 -4.52,-149.84 0,0 -8.23,-18.14 -15.94,-21.12 -7.7,-2.97 -17.76,17.34 -19.44,32.57 -1.68,15.23 0.84,115.33 4.58,151.82"
         style="fill:#33535f;fill-opacity:1;fill-rule:nonzero;stroke:none"
         id="path278" /><path
         d="m 2697.93,2513.88 35.93,-12.45 c 4.32,-1.5 8.15,1.01 8.52,5.56 l 1.37,17.39 c 0.31,3.77 -2.35,7.89 -5.91,9.17 l -36.11,13 c -4.28,1.54 -8.06,-0.91 -8.4,-5.45 l -1.34,-18.16 c -0.29,-3.75 2.39,-7.83 5.94,-9.06"
         style="fill:#273e47;fill-opacity:1;fill-rule:nonzero;stroke:none"
         id="path280" /><path
         d="m 2711.54,2388.37 c 5.45,-2.21 9.86,-8.93 9.86,-15.01 0,-6.08 -4.41,-9.35 -9.86,-7.31 -5.45,2.04 -9.87,8.76 -9.86,15 0,6.25 4.42,9.52 9.86,7.32"
         style="fill:#dadbd8;fill-opacity:1;fill-rule:nonzero;stroke:none"
         id="path282" /><path
         d="m 2551.14,2599.51 34.58,-15.24 c 0,0 -10.19,-107.32 -12.25,-149.4 0,0 -9.16,-17.69 -17.01,-20.27 -7.85,-2.58 -16.85,18.23 -17.74,33.53 -0.89,15.29 6.8,115.13 12.42,151.38"
         style="fill:#33535f;fill-opacity:1;fill-rule:nonzero;stroke:none"
         id="path284" /><path
         d="m 2549.69,2591.22 35.23,-14.29 c 4.24,-1.72 8.2,0.58 8.79,5.11 l 2.29,17.29 c 0.49,3.74 -1.95,8 -5.43,9.46 l -35.39,14.85 c -4.2,1.76 -8.11,-0.49 -8.67,-5.01 l -2.29,-18.06 c -0.48,-3.73 1.99,-7.94 5.47,-9.35"
         style="fill:#273e47;fill-opacity:1;fill-rule:nonzero;stroke:none"
         id="path286" /><path
         d="m 2556.8,2465.16 c 5.32,-2.48 9.38,-9.42 9.06,-15.49 -0.31,-6.07 -4.88,-9.11 -10.22,-6.8 -5.33,2.32 -9.4,9.26 -9.06,15.5 0.32,6.24 4.9,9.28 10.22,6.79"
         style="fill:#dadbd8;fill-opacity:1;fill-rule:nonzero;stroke:none"
         id="path288" /><path
         d="m 2512.99,2394.06 c -0.34,-43.11 -1.21,-60.89 0.75,-81.61 1.36,-14.18 4,-26.77 24.9,-41.66 20.9,-14.89 110.93,-62.25 137.59,-74.9 32.62,-15.47 68.12,-25.74 67.55,-0.51 -0.48,22.04 -0.04,69.11 0,85.13 0.06,19.82 -9.54,32.72 -49.95,51.41 -38.32,17.73 -123.62,65.68 -147.27,76.47 -19.98,9.11 -33.46,-1.43 -33.57,-14.33"
         style="fill:#26b6a6;fill-opacity:1;fill-rule:nonzero;stroke:none"
         id="path290" /><path
         d="m 2974.37,3081.37 c 0,0 68.11,87.82 17.51,135.36 -59.91,56.29 -139.48,55.09 -243.36,18.87 -48.65,-16.96 -119.37,-66.22 -125.6,-161.69 -4.81,-73.62 200.54,-127.94 195.84,-178.38 l 155.61,185.84"
         style="fill:#17282f;fill-opacity:1;fill-rule:nonzero;stroke:none"
         id="path292" /><path
         d="m 2991.88,3043.09 c 0,0 27.86,-44.69 23.94,-49.23 -3.91,-4.54 -22.5,-8.98 -22.5,-8.98 l -1.44,58.21"
         style="fill:#f47089;fill-opacity:1;fill-rule:nonzero;stroke:none"
         id="path294" /><path
         d="m 2906.89,3184.6 c 27.84,-15.35 75.91,-43.62 85.65,-147.95 9.99,-107.1 -14.76,-143.56 -29.7,-157.16 -10.08,-9.17 -60.86,-11.24 -87.08,-2.31 -32.82,11.16 -103.53,48.51 -135.65,104.52 -37.78,65.89 -43.62,152.51 2.92,185.15 65.5,45.95 140.29,30.74 163.86,17.75"
         style="fill:#f6879f;fill-opacity:1;fill-rule:nonzero;stroke:none"
         id="path296" /><path
         d="m 2889.2,2873.89 c 23.23,-4.1 54.05,-2.81 67.99,2.47 -37.03,-1.17 -67.01,19.17 -67.01,19.17 l -0.98,-21.64"
         style="fill:#f47089;fill-opacity:1;fill-rule:nonzero;stroke:none"
         id="path298" /><path
         d="m 2905.51,3058.55 c 0,0 57.44,17.62 67.96,85.58 10.52,67.95 -74.38,96.72 -74.38,96.72 l 6.42,-182.3"
         style="fill:#17282f;fill-opacity:1;fill-rule:nonzero;stroke:none"
         id="path300" /><path
         d="m 2896.52,2965.11 c -5.59,-8.85 -27.51,-17.24 -50.62,6.69 -23.79,24.64 -22.33,67.67 10.85,77.75 32.97,10.03 49.2,-28.44 49.2,-28.44 31.13,60.76 9.16,158.8 9.16,158.8 0,0 -72.37,74.53 -189.79,38.93 -63.12,-19.13 -95.56,-84.98 -102.49,-134.07 -6.94,-49.07 -25.9,-136.81 -1.46,-168.67 24.94,-32.5 119.14,-80.96 204.18,-76.86 85.2,4.1 85.2,20.9 85.2,20.9 l -13.09,107.34 c 0,0 -0.38,-0.91 -1.14,-2.37"
         style="fill:#17282f;fill-opacity:1;fill-rule:nonzero;stroke:none"
         id="path302" /><path
         d="m 2658.16,3258.83 c 33.06,40.2 85.38,30.69 126,24.05 40.63,-6.64 100.38,-12.44 89.75,-39.5 -10.63,-27.06 -40.41,-52.29 -110.15,-45.54 -69.61,6.73 -82.89,0.02 -98.51,-18.53 0,0 -45.81,18.53 -7.09,79.52"
         style="fill:#f6879f;fill-opacity:1;fill-rule:nonzero;stroke:none"
         id="path304" /></g></g></svg>
