<svg xmlns="http://www.w3.org/2000/svg" viewBox="0 0 2680 1592" width="100%" height="100%"><defs><linearGradient id="grd1" gradientUnits="userSpaceOnUse"  x1="1192.075" y1="244.537" x2="1682.38" y2="244.537"><stop offset="0" stop-color="#fe7062"  /><stop offset="1" stop-color="#ff928e"  /></linearGradient><linearGradient id="grd2" gradientUnits="userSpaceOnUse"  x1="1148.345" y1="900.916" x2="1248.343" y2="168.926"><stop offset="0" stop-color="#fe7062"  /><stop offset="1" stop-color="#ff928e"  /></linearGradient><linearGradient id="grd3" gradientUnits="userSpaceOnUse"  x1="1612.489" y1="91.56" x2="1870.083" y2="1015.215"><stop offset="0" stop-color="#e1473d"  /><stop offset="1" stop-color="#e9605a"  /></linearGradient><linearGradient id="grd4" gradientUnits="userSpaceOnUse"  x1="1296.462" y1="347.343" x2="1579.574" y2="347.343"><stop offset="0" stop-color="#ff928e"  /><stop offset="1" stop-color="#feb3b1"  /></linearGradient><linearGradient id="grd5" gradientUnits="userSpaceOnUse"  x1="1288.554" y1="339.435" x2="1587.482" y2="339.435"><stop offset="0" stop-color="#e1473d"  /><stop offset="1" stop-color="#e9605a"  /></linearGradient></defs><style>tspan { white-space:pre }.shp0 { fill: url(#grd1) } .shp1 { fill: url(#grd2) } .shp2 { fill: url(#grd3) } .shp3 { fill: url(#grd4) } .shp4 { fill: url(#grd5) } .shp5 { fill: #ffffff } </style><g ><g ><g ><g ><g ><g ><path class="shp0" d="M1682.38 491.69C1682.38 627.08 1572.62 736.84 1437.23 736.84C1301.83 736.84 1192.08 627.08 1192.08 491.69C1192.08 356.3 1301.83 246.54 1437.23 246.54C1572.62 246.54 1682.38 356.3 1682.38 491.69Z" /><path class="shp1" d="M1681.93 472.24L1437.23 472.24L1192.08 472.24C1179.06 565.06 1245.49 735.7 1391.35 984.16C1400.9 1000.43 1418.34 1011.72 1437.2 1011.73C1456.05 1011.74 1473.53 999.82 1483.07 983.56C1628.92 735.07 1695.21 564.63 1681.93 472.24Z" /></g><g ><path fill-rule="evenodd" class="shp2" d="M1441.9 1021.26L1441.9 1022.03L1437.19 1022.03C1415.85 1022.03 1395.94 1010.59 1385.21 992.33C1257.32 774.47 1210.46 636.88 1193.67 559.8C1188.89 542.07 1186.14 524.76 1185.27 506.94C1183.79 488.71 1184.92 481.07 1185.05 480.26L1185.7 476.35C1195.57 344.67 1305.17 242.19 1437.23 242.19C1571.02 242.19 1681.6 346.13 1689.08 478.87C1689.27 480.61 1689.63 485.01 1689.49 492.38L1689.5 493.29C1689.5 517.37 1686.1 541.22 1679.39 564.18C1662.02 641.19 1617.26 777.58 1491.55 991.76C1480.76 1010.15 1460.38 1021.26 1441.9 1021.26ZM1198.77 487.45C1198.71 487.45 1198.82 497.44 1199.46 505.34L1199.48 505.85C1200.29 522.73 1202.9 539.25 1207.46 556.08L1207.54 556.49C1224.08 632.53 1270.46 768.62 1397.49 985.01C1405.67 998.94 1423.23 1007.62 1439.54 1007.63L1441.9 1014.76L1441.9 1007.64C1449.51 1007.64 1472.09 998.92 1480.34 984.87C1605.24 772.06 1651.61 636.81 1667.9 560.83L1667.9 560.39C1675.51 538.67 1676.51 516.09 1676.51 493.29L1675.51 492.29L1675.51 492.21C1675.51 485.11 1675.16 481.27 1675.04 480.27L1674.94 479.85C1667.98 354.57 1563.56 256.42 1437.26 256.42C1311.2 256.42 1206.8 354.89 1199.62 481.28L1199.22 487.45L1198.77 487.45Z" /></g><path class="shp3" d="M1579.57 490.9C1579.57 569.08 1516.2 632.45 1438.02 632.45C1359.84 632.45 1296.46 569.08 1296.46 490.9C1296.46 412.72 1359.84 349.34 1438.02 349.34C1516.2 349.34 1579.57 412.72 1579.57 490.9Z" /><g ><path fill-rule="evenodd" class="shp4" d="M1438.02 640.36C1355.6 640.36 1288.55 573.31 1288.55 490.9C1288.55 408.48 1355.6 341.44 1438.02 341.44C1520.43 341.44 1587.48 408.48 1587.48 490.9C1587.48 573.31 1520.43 640.36 1438.02 640.36ZM1438.02 357.25C1364.32 357.25 1304.37 417.21 1304.37 490.9C1304.37 564.59 1364.32 624.55 1438.02 624.55C1511.71 624.55 1571.67 564.59 1571.67 490.9C1571.67 417.21 1511.71 357.25 1438.02 357.25Z" /></g></g><g style="opacity: 0.471"><path class="shp5" d="M1287.63 330.26C1286.96 330.26 1286.3 329.98 1285.83 329.44C1284.97 328.44 1285.09 326.95 1286.08 326.09C1325.85 291.94 1376.65 273.13 1429.14 273.13C1430.45 273.13 1431.51 274.19 1431.51 275.5C1431.51 276.81 1430.45 277.88 1429.14 277.88C1377.79 277.88 1328.08 296.28 1289.17 329.69C1288.73 330.08 1288.18 330.26 1287.63 330.26Z" /></g><g style="opacity: 0.471"><path class="shp5" d="M1211.83 495.19C1210.52 495.19 1209.45 494.13 1209.45 492.82C1209.45 451.83 1220.82 411.84 1242.32 377.18C1243.01 376.06 1244.47 375.72 1245.59 376.41C1246.7 377.1 1247.04 378.56 1246.35 379.68C1225.32 413.59 1214.2 452.71 1214.2 492.82C1214.2 494.13 1213.14 495.19 1211.83 495.19Z" /></g></g></g></g></g></svg>