<?xml version="1.0" encoding="UTF-8"?>
<svg viewBox="0 0 2680 1592" xmlns="http://www.w3.org/2000/svg">
<defs>
<linearGradient id="e" x1="1192.1" x2="1682.4" y1="244.54" y2="244.54" gradientUnits="userSpaceOnUse">
<stop stop-color="#fe7062" offset="0"/>
<stop stop-color="#ff928e" offset="1"/>
</linearGradient>
<linearGradient id="d" x1="1148.3" x2="1248.3" y1="900.92" y2="168.93" gradientUnits="userSpaceOnUse">
<stop stop-color="#fe7062" offset="0"/>
<stop stop-color="#ff928e" offset="1"/>
</linearGradient>
<linearGradient id="c" x1="1612.5" x2="1870.1" y1="91.56" y2="1015.2" gradientUnits="userSpaceOnUse">
<stop stop-color="#e1473d" offset="0"/>
<stop stop-color="#e9605a" offset="1"/>
</linearGradient>
<linearGradient id="b" x1="1296.5" x2="1579.6" y1="347.34" y2="347.34" gradientUnits="userSpaceOnUse">
<stop stop-color="#ff928e" offset="0"/>
<stop stop-color="#feb3b1" offset="1"/>
</linearGradient>
<linearGradient id="a" x1="1288.6" x2="1587.5" y1="339.44" y2="339.44" gradientUnits="userSpaceOnUse">
<stop stop-color="#e1473d" offset="0"/>
<stop stop-color="#e9605a" offset="1"/>
</linearGradient>
</defs>
<style>tspan { white-space:pre }.shp0 { fill: url(#e) } .shp1 { fill: url(#d) } .shp2 { fill: url(#c) } .shp3 { fill: url(#b) } .shp4 { fill: url(#a) } .shp5 { fill: #ffffff }</style>
<path class="shp0" d="m1682.4 491.69c0 135.39-109.76 245.15-245.15 245.15-135.4 0-245.15-109.76-245.15-245.15s109.75-245.15 245.15-245.15c135.39 0 245.15 109.76 245.15 245.15z"/>
<path class="shp1" d="m1681.9 472.24h-244.7-245.15c-13.02 92.82 53.41 263.46 199.27 511.92 9.55 16.27 26.99 27.56 45.85 27.57 18.85 0.01 36.33-11.91 45.87-28.17 145.85-248.49 212.14-418.93 198.86-511.32z"/>
<path class="shp2" d="m1441.9 1021.3v0.77h-4.71c-21.34 0-41.25-11.44-51.98-29.7-127.89-217.86-174.75-355.45-191.54-432.53-4.78-17.73-7.53-35.04-8.4-52.86-1.48-18.23-0.35-25.87-0.22-26.68l0.65-3.91c9.87-131.68 119.47-234.16 251.53-234.16 133.79 0 244.37 103.94 251.85 236.68 0.19 1.74 0.55 6.14 0.41 13.51l0.01 0.91c0 24.08-3.4 47.93-10.11 70.89-17.37 77.01-62.13 213.4-187.84 427.58-10.79 18.39-31.17 29.5-49.65 29.5zm-243.13-533.81c-0.06 0 0.05 9.99 0.69 17.89l0.02 0.51c0.81 16.88 3.42 33.4 7.98 50.23l0.08 0.41c16.54 76.04 62.92 212.13 189.95 428.52 8.18 13.93 25.74 22.61 42.05 22.62l2.36 7.13v-7.12c7.61 0 30.19-8.72 38.44-22.77 124.9-212.81 171.27-348.06 187.56-424.04v-0.44c7.61-21.72 8.61-44.3 8.61-67.1l-1-1v-0.08c0-7.1-0.35-10.94-0.47-11.94l-0.1-0.42c-6.96-125.28-111.38-223.43-237.68-223.43-126.06 0-230.46 98.47-237.64 224.86l-0.4 6.17h-0.45z" fill-rule="evenodd"/>
<path class="shp3" d="m1579.6 490.9c0 78.18-63.37 141.55-141.55 141.55s-141.56-63.37-141.56-141.55 63.38-141.56 141.56-141.56 141.55 63.38 141.55 141.56z"/>
<path class="shp4" d="m1438 640.36c-82.42 0-149.47-67.05-149.47-149.46 0-82.42 67.05-149.46 149.47-149.46 82.41 0 149.46 67.04 149.46 149.46 0 82.41-67.05 149.46-149.46 149.46zm0-283.11c-73.7 0-133.65 59.96-133.65 133.65s59.95 133.65 133.65 133.65c73.69 0 133.65-59.96 133.65-133.65s-59.96-133.65-133.65-133.65z" fill-rule="evenodd"/>
<g opacity=".471">
<path class="shp5" d="m1287.6 330.26c-0.67 0-1.33-0.28-1.8-0.82-0.86-1-0.74-2.49 0.25-3.35 39.77-34.15 90.57-52.96 143.06-52.96 1.31 0 2.37 1.06 2.37 2.37s-1.06 2.38-2.37 2.38c-51.35 0-101.06 18.4-139.97 51.81-0.44 0.39-0.99 0.57-1.54 0.57z"/>
</g>
<g opacity=".471">
<path class="shp5" d="m1211.8 495.19c-1.31 0-2.38-1.06-2.38-2.37 0-40.99 11.37-80.98 32.87-115.64 0.69-1.12 2.15-1.46 3.27-0.77 1.11 0.69 1.45 2.15 0.76 3.27-21.03 33.91-32.15 73.03-32.15 113.14 0 1.31-1.06 2.37-2.37 2.37z"/>
</g>
</svg>
